SplineFontDB: 3.2
FontName: Konemo_Modern
FullName: Konemo Modern
FamilyName: Konemo
Weight: Book
Copyright: Copyright (c) 2024, Jorim
Version: 001.000
ItalicAngle: 0
UnderlinePosition: -100
UnderlineWidth: 50
Ascent: 800
Descent: 200
InvalidEm: 0
sfntRevision: 0x00010000
LayerCount: 2
Layer: 0 1 "Back" 1
Layer: 1 1 "Fore" 0
XUID: [1021 554 -210071277 15447170]
StyleMap: 0x0040
FSType: 0
OS2Version: 4
OS2_WeightWidthSlopeOnly: 0
OS2_UseTypoMetrics: 1
CreationTime: 1734519155
ModificationTime: 1777466123
PfmFamily: 17
TTFWeight: 400
TTFWidth: 5
LineGap: 90
VLineGap: 0
Panose: 2 0 5 3 0 0 0 0 0 0
OS2TypoAscent: 800
OS2TypoAOffset: 0
OS2TypoDescent: -200
OS2TypoDOffset: 0
OS2TypoLinegap: 90
OS2WinAscent: 925
OS2WinAOffset: 0
OS2WinDescent: 125
OS2WinDOffset: 0
HheadAscent: 925
HheadAOffset: 0
HheadDescent: -125
HheadDOffset: 0
OS2SubXSize: 650
OS2SubYSize: 700
OS2SubXOff: 0
OS2SubYOff: 140
OS2SupXSize: 650
OS2SupYSize: 700
OS2SupXOff: 0
OS2SupYOff: 480
OS2StrikeYSize: 49
OS2StrikeYPos: 258
OS2CapHeight: 425
OS2XHeight: 725
OS2Vendor: 'PfEd'
OS2CodePages: 00000001.00000000
OS2UnicodeRanges: 00000003.00000000.00000000.00000000
MarkAttachClasses: 1
DEI: 91125
ShortTable: cvt  2
  33
  633
EndShort
ShortTable: maxp 16
  1
  0
  108
  49
  3
  0
  0
  2
  0
  1
  1
  0
  64
  46
  0
  0
EndShort
LangName: 1033 "" "" "" "FontForge : Konemo Modern : 10-2-2025" "" "Version 001.000"
GaspTable: 1 65535 2 0
Encoding: UnicodeFull
UnicodeInterp: none
NameList: AGL For New Fonts
DisplaySize: -48
AntiAlias: 1
FitToEm: 0
WinInfo: 8688 16 4
BeginChars: 1114113 132

StartChar: .notdef
Encoding: 1114112 -1 0
Width: 364
GlyphClass: 1
Flags: W
HStem: 0 33<66 265> 633 33<66 265>
VStem: 33 33<33 633> 265 33<33 633>
LayerCount: 2
Fore
SplineSet
33 0 m 1,0,-1
 33 666 l 1,1,-1
 298 666 l 1,2,-1
 298 0 l 1,3,-1
 33 0 l 1,0,-1
66 33 m 1,4,-1
 265 33 l 1,5,-1
 265 633 l 1,6,-1
 66 633 l 1,7,-1
 66 33 l 1,4,-1
EndSplineSet
Validated: 1
EndChar

StartChar: exclam
Encoding: 33 33 33
Width: 400
GlyphClass: 1
Flags: W
HStem: 375 50<120 300> 805 20G<316.5 330.5>
VStem: 300 50<-17.265 375 425 713>
LayerCount: 2
Fore
SplineSet
1005 905 m 1024,0,-1
325 -25 m 128,-1,2
 314 -25 314 -25 307 -17.5 c 128,-1,3
 300 -10 300 -10 300 0 c 2,4,-1
 300 375 l 1,5,-1
 75 375 l 2,6,7
 64 375 64 375 57 382.5 c 128,-1,8
 50 390 50 390 50 400 c 0,9,10
 50 408 50 408 54 413 c 2,11,-1
 304 813 l 2,12,13
 308 825 308 825 325 825 c 0,14,15
 336 825 336 825 343 817.5 c 128,-1,16
 350 810 350 810 350 800 c 2,17,-1
 350 0 l 2,18,19
 350 -10 350 -10 343 -17.5 c 128,-1,1
 336 -25 336 -25 325 -25 c 128,-1,2
300 425 m 1,20,-1
 300 713 l 1,21,-1
 120 425 l 1,22,-1
 300 425 l 1,20,-1
EndSplineSet
Validated: 1
EndChar

StartChar: asterisk
Encoding: 42 42 34
Width: 400
GlyphClass: 1
Flags: W
HStem: 375 50<100 342.78> 805 20G<69.5 80.5>
VStem: 50 50<-17.265 375 425 817.265>
LayerCount: 2
Fore
SplineSet
75 825 m 128,-1,1
 86 825 86 825 93 817.5 c 128,-1,2
 100 810 100 810 100 800 c 2,3,-1
 100 425 l 1,4,-1
 325 425 l 2,5,6
 336 425 336 425 343 417.5 c 128,-1,7
 350 410 350 410 350 400 c 128,-1,8
 350 390 350 390 343 382.5 c 128,-1,9
 336 375 336 375 325 375 c 2,10,-1
 100 375 l 1,11,-1
 100 0 l 2,12,13
 100 -10 100 -10 93 -17.5 c 128,-1,14
 86 -25 86 -25 75 -25 c 128,-1,15
 64 -25 64 -25 57 -17.5 c 128,-1,16
 50 -10 50 -10 50 0 c 2,17,-1
 50 800 l 2,18,19
 50 810 50 810 57 817.5 c 128,-1,0
 64 825 64 825 75 825 c 128,-1,1
EndSplineSet
Validated: 1
EndChar

StartChar: plus
Encoding: 43 43 35
Width: 600
GlyphClass: 1
Flags: W
HStem: 375 50<25.1831 275 325 574.817> 805 20G<295 305>
VStem: 275 50<425 824.817>
LayerCount: 2
Fore
SplineSet
275 800 m 2,0,1
 275 810 275 810 282.5 817.5 c 128,-1,2
 290 825 290 825 300 825 c 128,-1,3
 310 825 310 825 317.5 817.5 c 128,-1,4
 325 810 325 810 325 800 c 2,5,-1
 325 425 l 1,6,-1
 550 425 l 2,7,8
 560 425 560 425 567.5 417.5 c 128,-1,9
 575 410 575 410 575 400 c 128,-1,10
 575 390 575 390 567.5 382.5 c 128,-1,11
 560 375 560 375 550 375 c 2,12,-1
 50 375 l 2,13,14
 40 375 40 375 32.5 382.5 c 128,-1,15
 25 390 25 390 25 400 c 128,-1,16
 25 410 25 410 32.5 417.5 c 128,-1,17
 40 425 40 425 50 425 c 2,18,-1
 275 425 l 1,19,-1
 275 800 l 2,0,1
EndSplineSet
Validated: 1
EndChar

StartChar: comma
Encoding: 44 44 36
Width: 150
GlyphClass: 1
Flags: W
HStem: -105 130
VStem: 0 100
LayerCount: 2
Fore
SplineSet
75 25 m 128,-1,1
 86 25 86 25 93 17.5 c 128,-1,2
 100 10 100 10 100 0 c 0,3,4
 100 -8 100 -8 96 -13 c 0,5,6
 45 -96 45 -96 43 -98 c 0,7,8
 36 -105 36 -105 25 -105 c 128,-1,9
 14 -105 14 -105 7 -97.5 c 128,-1,10
 0 -90 0 -90 0 -80 c 0,11,12
 0 -72 0 -72 4 -67 c 0,13,14
 55 16 55 16 57 18 c 0,15,0
 64 25 64 25 75 25 c 128,-1,1
EndSplineSet
Validated: 1
EndChar

StartChar: hyphen
Encoding: 45 45 37
Width: 600
GlyphClass: 1
Flags: W
HStem: 375 50<25.1831 275 325 574.817>
VStem: 275 50<-24.8169 375>
LayerCount: 2
Fore
SplineSet
275 0 m 2,0,-1
 275 375 l 1,1,-1
 50 375 l 2,2,3
 40 375 40 375 32.5 382.5 c 128,-1,4
 25 390 25 390 25 400 c 128,-1,5
 25 410 25 410 32.5 417.5 c 128,-1,6
 40 425 40 425 50 425 c 2,7,-1
 550 425 l 2,8,9
 560 425 560 425 567.5 417.5 c 128,-1,10
 575 410 575 410 575 400 c 128,-1,11
 575 390 575 390 567.5 382.5 c 128,-1,12
 560 375 560 375 550 375 c 2,13,-1
 325 375 l 1,14,-1
 325 0 l 2,15,16
 325 -10 325 -10 317.5 -17.5 c 128,-1,17
 310 -25 310 -25 300 -25 c 128,-1,18
 290 -25 290 -25 282.5 -17.5 c 128,-1,19
 275 -10 275 -10 275 0 c 2,0,-1
EndSplineSet
Validated: 1
EndChar

StartChar: period
Encoding: 46 46 38
Width: 150
GlyphClass: 1
Flags: W
HStem: -105 130
VStem: 50 100
LayerCount: 2
Fore
SplineSet
150 -80 m 0,0,1
 150 -90 150 -90 143 -97.5 c 128,-1,2
 136 -105 136 -105 125 -105 c 0,3,4
 112 -105 112 -105 104 -93 c 2,5,-1
 54 -13 l 2,6,7
 50 -8 50 -8 50 0 c 0,8,9
 50 10 50 10 57 17.5 c 128,-1,10
 64 25 64 25 75 25 c 0,11,12
 88 25 88 25 96 13 c 2,13,-1
 146 -67 l 2,14,15
 150 -72 150 -72 150 -80 c 0,0,1
EndSplineSet
Validated: 1
EndChar

StartChar: slash
Encoding: 47 47 39
Width: 400
GlyphClass: 1
Flags: W
HStem: 375 50<57.2197 300> 805 20G<319.5 330.5>
VStem: 300 50<-17.265 375 425 817.265>
LayerCount: 2
Fore
SplineSet
325 825 m 128,-1,1
 336 825 336 825 343 817.5 c 128,-1,2
 350 810 350 810 350 800 c 2,3,-1
 350 0 l 2,4,5
 350 -10 350 -10 343 -17.5 c 128,-1,6
 336 -25 336 -25 325 -25 c 128,-1,7
 314 -25 314 -25 307 -17.5 c 128,-1,8
 300 -10 300 -10 300 0 c 2,9,-1
 300 375 l 1,10,-1
 75 375 l 2,11,12
 64 375 64 375 57 382.5 c 128,-1,13
 50 390 50 390 50 400 c 128,-1,14
 50 410 50 410 57 417.5 c 128,-1,15
 64 425 64 425 75 425 c 2,16,-1
 300 425 l 1,17,-1
 300 800 l 2,18,19
 300 810 300 810 307 817.5 c 128,-1,0
 314 825 314 825 325 825 c 128,-1,1
EndSplineSet
Validated: 1
EndChar

StartChar: zero
Encoding: 48 48 40
Width: 600
GlyphClass: 1
Flags: W
HStem: 375 21G<45 58.5> 805 20G<291.5 305>
VStem: 275 50<87 713>
LayerCount: 2
Fore
SplineSet
300 825 m 0,0,1
 310 825 310 825 317.5 817.5 c 128,-1,2
 325 810 325 810 325 800 c 2,3,-1
 325 87 l 1,4,-1
 529 413 l 2,5,6
 533 425 533 425 550 425 c 0,7,8
 560 425 560 425 567.5 417.5 c 128,-1,9
 575 410 575 410 575 400 c 0,10,11
 575 392 575 392 571 387 c 2,12,-1
 321 -13 l 2,13,14
 317 -25 317 -25 300 -25 c 0,15,16
 290 -25 290 -25 282.5 -17.5 c 128,-1,17
 275 -10 275 -10 275 0 c 2,18,-1
 275 713 l 1,19,-1
 71 387 l 2,20,21
 67 375 67 375 50 375 c 0,22,23
 40 375 40 375 32.5 382.5 c 128,-1,24
 25 390 25 390 25 400 c 0,25,26
 25 408 25 408 29 413 c 2,27,-1
 279 813 l 2,28,29
 283 825 283 825 300 825 c 0,0,1
EndSplineSet
Validated: 1
EndChar

StartChar: one
Encoding: 49 49 41
Width: 250
GlyphClass: 1
Flags: W
HStem: 375 21G<-5 8.5> 805 20G<241.5 255>
VStem: -25 300
LayerCount: 2
Fore
SplineSet
0 375 m 0,0,1
 -10 375 -10 375 -17.5 382.5 c 128,-1,2
 -25 390 -25 390 -25 400 c 0,3,4
 -25 408 -25 408 -21 413 c 2,5,-1
 229 813 l 2,6,7
 233 825 233 825 250 825 c 0,8,9
 260 825 260 825 267.5 817.5 c 128,-1,10
 275 810 275 810 275 800 c 0,11,12
 275 792 275 792 271 787 c 2,13,-1
 21 387 l 2,14,15
 17 375 17 375 0 375 c 0,0,1
EndSplineSet
Validated: 1
EndChar

StartChar: two
Encoding: 50 50 42
Width: 250
GlyphClass: 1
Flags: W
HStem: 375 21G<243.5 255> 805 20G<-5 6.5>
VStem: -25 300
LayerCount: 2
Fore
SplineSet
106 751 m 1024,0,-1
275 400 m 0,1,2
 275 390 275 390 267.5 382.5 c 128,-1,3
 260 375 260 375 250 375 c 0,4,5
 237 375 237 375 229 387 c 2,6,-1
 -21 787 l 2,7,8
 -25 792 -25 792 -25 800 c 0,9,10
 -25 810 -25 810 -17.5 817.5 c 128,-1,11
 -10 825 -10 825 0 825 c 0,12,13
 13 825 13 825 21 813 c 2,14,-1
 271 413 l 2,15,16
 275 408 275 408 275 400 c 0,1,2
EndSplineSet
Validated: 1
EndChar

StartChar: three
Encoding: 51 51 43
Width: 250
GlyphClass: 1
Flags: W
VStem: -25 300
LayerCount: 2
Fore
SplineSet
0 -25 m 0,0,1
 -10 -25 -10 -25 -17.5 -17.5 c 128,-1,2
 -25 -10 -25 -10 -25 0 c 0,3,4
 -25 8 -25 8 -21 13 c 2,5,-1
 229 413 l 2,6,7
 233 425 233 425 250 425 c 0,8,9
 260 425 260 425 267.5 417.5 c 128,-1,10
 275 410 275 410 275 400 c 0,11,12
 275 392 275 392 271 387 c 2,13,-1
 21 -13 l 2,14,15
 17 -25 17 -25 0 -25 c 0,0,1
EndSplineSet
Validated: 1
EndChar

StartChar: four
Encoding: 52 52 44
Width: 250
GlyphClass: 1
Flags: W
VStem: -25 300
LayerCount: 2
Fore
SplineSet
108 207 m 1024,0,-1
275 0 m 0,1,2
 275 -10 275 -10 267.5 -17.5 c 128,-1,3
 260 -25 260 -25 250 -25 c 0,4,5
 237 -25 237 -25 229 -13 c 2,6,-1
 -21 387 l 2,7,8
 -25 392 -25 392 -25 400 c 0,9,10
 -25 410 -25 410 -17.5 417.5 c 128,-1,11
 -10 425 -10 425 0 425 c 0,12,13
 13 425 13 425 21 413 c 2,14,-1
 271 13 l 2,15,16
 275 8 275 8 275 0 c 0,1,2
EndSplineSet
Validated: 1
EndChar

StartChar: five
Encoding: 53 53 45
Width: 500
GlyphClass: 1
Flags: W
HStem: 375 50<-24.8169 524.817>
LayerCount: 2
Fore
SplineSet
234 235 m 1024,0,-1
525 400 m 128,-1,2
 525 390 525 390 517.5 382.5 c 128,-1,3
 510 375 510 375 500 375 c 2,4,-1
 0 375 l 2,5,6
 -10 375 -10 375 -17.5 382.5 c 128,-1,7
 -25 390 -25 390 -25 400 c 128,-1,8
 -25 410 -25 410 -17.5 417.5 c 128,-1,9
 -10 425 -10 425 0 425 c 2,10,-1
 500 425 l 2,11,12
 510 425 510 425 517.5 417.5 c 128,-1,1
 525 410 525 410 525 400 c 128,-1,2
EndSplineSet
Validated: 1
EndChar

StartChar: colon
Encoding: 58 58 46
Width: 100
GlyphClass: 1
Flags: W
HStem: -125 250<7.21973 42.7803>
VStem: 0 50<-117.265 117.265>
LayerCount: 2
Fore
SplineSet
25 -125 m 128,-1,1
 14 -125 14 -125 7 -117.5 c 128,-1,2
 0 -110 0 -110 0 -100 c 2,3,-1
 0 100 l 2,4,5
 0 110 0 110 7 117.5 c 128,-1,6
 14 125 14 125 25 125 c 128,-1,7
 36 125 36 125 43 117.5 c 128,-1,8
 50 110 50 110 50 100 c 2,9,-1
 50 -100 l 2,10,11
 50 -110 50 -110 43 -117.5 c 128,-1,0
 36 -125 36 -125 25 -125 c 128,-1,1
EndSplineSet
Validated: 1
EndChar

StartChar: equal
Encoding: 61 61 47
Width: 600
GlyphClass: 1
Flags: W
HStem: 375 50<25.1831 275 325 574.817> 805 20G<295 305>
VStem: 275 50<-24.8169 375 425 824.817>
LayerCount: 2
Fore
SplineSet
300 825 m 128,-1,1
 310 825 310 825 317.5 817.5 c 128,-1,2
 325 810 325 810 325 800 c 2,3,-1
 325 425 l 1,4,-1
 550 425 l 2,5,6
 560 425 560 425 567.5 417.5 c 128,-1,7
 575 410 575 410 575 400 c 128,-1,8
 575 390 575 390 567.5 382.5 c 128,-1,9
 560 375 560 375 550 375 c 2,10,-1
 325 375 l 1,11,-1
 325 0 l 2,12,13
 325 -10 325 -10 317.5 -17.5 c 128,-1,14
 310 -25 310 -25 300 -25 c 128,-1,15
 290 -25 290 -25 282.5 -17.5 c 128,-1,16
 275 -10 275 -10 275 0 c 2,17,-1
 275 375 l 1,18,-1
 50 375 l 2,19,20
 40 375 40 375 32.5 382.5 c 128,-1,21
 25 390 25 390 25 400 c 128,-1,22
 25 410 25 410 32.5 417.5 c 128,-1,23
 40 425 40 425 50 425 c 2,24,-1
 275 425 l 1,25,-1
 275 800 l 2,26,27
 275 810 275 810 282.5 817.5 c 128,-1,0
 290 825 290 825 300 825 c 128,-1,1
EndSplineSet
Validated: 1
EndChar

StartChar: question
Encoding: 63 63 48
Width: 400
GlyphClass: 1
Flags: W
HStem: 375 50<100 280> 805 20G<69.5 83.5>
VStem: 50 50<-17.265 375 425 713>
LayerCount: 2
Fore
SplineSet
75 -25 m 128,-1,1
 64 -25 64 -25 57 -17.5 c 128,-1,2
 50 -10 50 -10 50 0 c 2,3,-1
 50 800 l 2,4,5
 50 810 50 810 57 817.5 c 128,-1,6
 64 825 64 825 75 825 c 0,7,8
 92 825 92 825 96 813 c 2,9,-1
 346 413 l 2,10,11
 350 408 350 408 350 400 c 0,12,13
 350 390 350 390 343 382.5 c 128,-1,14
 336 375 336 375 325 375 c 2,15,-1
 100 375 l 1,16,-1
 100 0 l 2,17,18
 100 -10 100 -10 93 -17.5 c 128,-1,0
 86 -25 86 -25 75 -25 c 128,-1,1
100 425 m 1,19,-1
 280 425 l 1,20,-1
 100 713 l 1,21,-1
 100 425 l 1,19,-1
EndSplineSet
Validated: 1
EndChar

StartChar: A
Encoding: 65 65 49
Width: 600
GlyphClass: 1
Flags: W
HStem: 376 50<95 574.665> 803 20G<293 305>
LayerCount: 2
Fore
SplineSet
575 400 m 128,-1,1
 575 390 575 390 567.5 382.5 c 128,-1,2
 560 375 560 375 550 375 c 2,3,-1
 49 376 l 2,4,5
 39 376 39 376 32 383.5 c 128,-1,6
 25 391 25 391 25 401 c 0,7,8
 25 408 25 408 28 414 c 2,9,-1
 278 811 l 2,10,11
 286 823 286 823 300 823 c 0,12,13
 310 823 310 823 317 815.5 c 128,-1,14
 324 808 324 808 324 798 c 0,15,16
 324 791 324 791 321 785 c 2,17,-1
 95 426 l 1,18,-1
 551 425 l 2,19,20
 561 425 561 425 568 417.5 c 128,-1,0
 575 410 575 410 575 400 c 128,-1,1
EndSplineSet
Validated: 1
EndChar

StartChar: B
Encoding: 66 66 50
Width: 600
GlyphClass: 1
Flags: W
HStem: 375 21G<45 58.5 543.5 555> 805 20G<291.5 306.5 545 555> 905 20G<545 555>
VStem: 525 50<675.183 924.817>
LayerCount: 2
Fore
SplineSet
265 727 m 1024,0,-1
575 400 m 0,1,2
 575 390 575 390 567.5 382.5 c 128,-1,3
 560 375 560 375 550 375 c 0,4,5
 537 375 537 375 529 387 c 2,6,-1
 300 753 l 1,7,-1
 71 387 l 2,8,9
 67 375 67 375 50 375 c 0,10,11
 40 375 40 375 32.5 382.5 c 128,-1,12
 25 390 25 390 25 400 c 0,13,14
 25 408 25 408 29 413 c 2,15,-1
 279 813 l 2,16,17
 283 825 283 825 300 825 c 0,18,19
 313 825 313 825 321 813 c 2,20,-1
 571 413 l 2,21,22
 575 408 575 408 575 400 c 0,1,2
550 675 m 128,-1,24
 540 675 540 675 532.5 682.5 c 128,-1,25
 525 690 525 690 525 700 c 2,26,-1
 525 900 l 2,27,28
 525 910 525 910 532.5 917.5 c 128,-1,29
 540 925 540 925 550 925 c 128,-1,30
 560 925 560 925 567.5 917.5 c 128,-1,31
 575 910 575 910 575 900 c 2,32,-1
 575 700 l 2,33,34
 575 690 575 690 567.5 682.5 c 128,-1,23
 560 675 560 675 550 675 c 128,-1,24
EndSplineSet
Validated: 1
EndChar

StartChar: C
Encoding: 67 67 51
Width: 600
GlyphClass: 1
Flags: W
HStem: 805 20G<303 313>
LayerCount: 2
Fore
SplineSet
263 714 m 1024,0,-1
550 425 m 0,1,2
 560 425 560 425 567.5 417.5 c 128,-1,3
 575 410 575 410 575 400 c 0,4,5
 575 392 575 392 571 387 c 2,6,-1
 321 -13 l 2,7,8
 317 -25 317 -25 300 -25 c 0,9,10
 287 -25 287 -25 279 -13 c 2,11,-1
 29 387 l 2,12,13
 25 392 25 392 25 400 c 0,14,15
 25 407 25 407 29 414 c 2,16,-1
 287 814 l 2,17,18
 298 825 298 825 308 825 c 128,-1,19
 318 825 318 825 325.5 817.5 c 128,-1,20
 333 810 333 810 333 800 c 0,21,22
 333 793 333 793 329 786 c 2,23,-1
 80 400 l 1,24,-1
 300 47 l 1,25,-1
 529 413 l 2,26,27
 533 425 533 425 550 425 c 0,1,2
EndSplineSet
Validated: 1
EndChar

StartChar: D
Encoding: 68 68 52
Width: 600
GlyphClass: 1
Flags: W
HStem: 375 21G<45 58.5> 805 20G<291.5 305 545 555> 905 20G<545 555>
VStem: 525 50<675.183 924.817>
LayerCount: 2
Fore
SplineSet
300 -25 m 0,0,1
 290 -25 290 -25 282.5 -17.5 c 128,-1,2
 275 -10 275 -10 275 0 c 0,3,4
 275 8 275 8 279 13 c 2,5,-1
 529 413 l 2,6,7
 533 425 533 425 550 425 c 0,8,9
 560 425 560 425 567.5 417.5 c 128,-1,10
 575 410 575 410 575 400 c 0,11,12
 575 392 575 392 571 387 c 2,13,-1
 321 -13 l 2,14,15
 317 -25 317 -25 300 -25 c 0,0,1
50 375 m 0,16,17
 40 375 40 375 32.5 382.5 c 128,-1,18
 25 390 25 390 25 400 c 0,19,20
 25 408 25 408 29 413 c 2,21,-1
 279 813 l 2,22,23
 283 825 283 825 300 825 c 0,24,25
 310 825 310 825 317.5 817.5 c 128,-1,26
 325 810 325 810 325 800 c 0,27,28
 325 792 325 792 321 787 c 2,29,-1
 71 387 l 2,30,31
 67 375 67 375 50 375 c 0,16,17
550 675 m 128,-1,33
 540 675 540 675 532.5 682.5 c 128,-1,34
 525 690 525 690 525 700 c 2,35,-1
 525 900 l 2,36,37
 525 910 525 910 532.5 917.5 c 128,-1,38
 540 925 540 925 550 925 c 128,-1,39
 560 925 560 925 567.5 917.5 c 128,-1,40
 575 910 575 910 575 900 c 2,41,-1
 575 700 l 2,42,43
 575 690 575 690 567.5 682.5 c 128,-1,32
 560 675 560 675 550 675 c 128,-1,33
EndSplineSet
Validated: 1
EndChar

StartChar: E
Encoding: 69 69 53
Width: 600
GlyphClass: 1
Flags: W
HStem: 375 50<25.1831 505> 805 20G<295 306.5>
LayerCount: 2
Fore
SplineSet
267 758 m 1024,0,-1
575 400 m 0,1,2
 575 390 575 390 567.5 382.5 c 128,-1,3
 560 375 560 375 550 375 c 2,4,-1
 50 375 l 2,5,6
 40 375 40 375 32.5 382.5 c 128,-1,7
 25 390 25 390 25 400 c 128,-1,8
 25 410 25 410 32.5 417.5 c 128,-1,9
 40 425 40 425 50 425 c 2,10,-1
 505 425 l 1,11,-1
 279 787 l 2,12,13
 275 792 275 792 275 800 c 0,14,15
 275 810 275 810 282.5 817.5 c 128,-1,16
 290 825 290 825 300 825 c 0,17,18
 313 825 313 825 321 813 c 2,19,-1
 571 413 l 2,20,21
 575 408 575 408 575 400 c 0,1,2
EndSplineSet
Validated: 1
EndChar

StartChar: F
Encoding: 70 70 54
Width: 600
GlyphClass: 1
Flags: W
HStem: 805 20G<295 306.5>
LayerCount: 2
Fore
SplineSet
275 800 m 0,0,1
 275 810 275 810 282.5 817.5 c 128,-1,2
 290 825 290 825 300 825 c 0,3,4
 313 825 313 825 321 813 c 2,5,-1
 571 413 l 2,6,7
 575 408 575 408 575 400 c 128,-1,8
 575 392 575 392 571 387 c 2,9,-1
 321 -13 l 2,10,11
 317 -25 317 -25 300 -25 c 0,12,13
 287 -25 287 -25 279 -13 c 2,14,-1
 29 387 l 2,15,16
 25 392 25 392 25 400 c 0,17,18
 25 410 25 410 32.5 417.5 c 128,-1,19
 40 425 40 425 50 425 c 0,20,21
 63 425 63 425 71 413 c 2,22,-1
 300 47 l 1,23,-1
 521 400 l 1,24,-1
 279 787 l 2,25,26
 275 792 275 792 275 800 c 0,0,1
EndSplineSet
Validated: 1
EndChar

StartChar: G
Encoding: 71 71 55
Width: 500
GlyphClass: 1
Flags: W
HStem: 805 20G<291.5 305 445 455> 905 20G<445 455>
VStem: 425 50<675.183 924.817>
LayerCount: 2
Fore
SplineSet
325 0 m 0,0,1
 325 -10 325 -10 317.5 -17.5 c 128,-1,2
 310 -25 310 -25 300 -25 c 0,3,4
 287 -25 287 -25 279 -13 c 2,5,-1
 29 387 l 2,6,7
 25 392 25 392 25 400 c 128,-1,8
 25 408 25 408 29 413 c 2,9,-1
 279 813 l 2,10,11
 283 825 283 825 300 825 c 0,12,13
 310 825 310 825 317.5 817.5 c 128,-1,14
 325 810 325 810 325 800 c 0,15,16
 325 792 325 792 321 787 c 2,17,-1
 79 400 l 1,18,-1
 321 13 l 2,19,20
 325 8 325 8 325 0 c 0,0,1
450 675 m 128,-1,22
 440 675 440 675 432.5 682.5 c 128,-1,23
 425 690 425 690 425 700 c 2,24,-1
 425 900 l 2,25,26
 425 910 425 910 432.5 917.5 c 128,-1,27
 440 925 440 925 450 925 c 128,-1,28
 460 925 460 925 467.5 917.5 c 128,-1,29
 475 910 475 910 475 900 c 2,30,-1
 475 700 l 2,31,32
 475 690 475 690 467.5 682.5 c 128,-1,21
 460 675 460 675 450 675 c 128,-1,22
EndSplineSet
Validated: 1
EndChar

StartChar: H
Encoding: 72 72 56
Width: 600
GlyphClass: 1
Flags: W
HStem: 805 20G<291.5 306.5>
LayerCount: 2
Fore
SplineSet
521 400 m 1,0,-1
 300 753 l 1,1,-1
 79 400 l 1,2,-1
 300 47 l 1,3,-1
 521 400 l 1,0,-1
575 400 m 128,-1,5
 575 392 575 392 571 387 c 2,6,-1
 321 -13 l 2,7,8
 317 -25 317 -25 300 -25 c 0,9,10
 287 -25 287 -25 279 -13 c 2,11,12
 279 -13 279 -13 29 387 c 0,13,14
 25 392 25 392 25 400 c 128,-1,15
 25 408 25 408 29 413 c 2,16,-1
 279 813 l 2,17,18
 283 825 283 825 300 825 c 0,19,20
 313 825 313 825 321 813 c 2,21,-1
 571 413 l 2,22,4
 575 408 575 408 575 400 c 128,-1,5
EndSplineSet
Validated: 1
EndChar

StartChar: J
Encoding: 74 74 57
Width: 600
GlyphClass: 1
Flags: W
HStem: 805 20G<291.5 305 545 555> 905 20G<545 555>
VStem: 525 50<675.183 924.817>
LayerCount: 2
Fore
SplineSet
550 425 m 0,0,1
 560 425 560 425 567.5 417.5 c 128,-1,2
 575 410 575 410 575 400 c 0,3,4
 575 392 575 392 571 387 c 2,5,-1
 321 -13 l 2,6,7
 317 -25 317 -25 300 -25 c 0,8,9
 287 -25 287 -25 279 -13 c 2,10,-1
 29 387 l 2,11,12
 25 392 25 392 25 400 c 128,-1,13
 25 408 25 408 29 413 c 2,14,-1
 279 813 l 2,15,16
 283 825 283 825 300 825 c 0,17,18
 310 825 310 825 317.5 817.5 c 128,-1,19
 325 810 325 810 325 800 c 0,20,21
 325 792 325 792 321 787 c 2,22,-1
 79 400 l 1,23,-1
 300 47 l 1,24,-1
 529 413 l 2,25,26
 533 425 533 425 550 425 c 0,0,1
550 675 m 128,-1,28
 540 675 540 675 532.5 682.5 c 128,-1,29
 525 690 525 690 525 700 c 2,30,-1
 525 900 l 2,31,32
 525 910 525 910 532.5 917.5 c 128,-1,33
 540 925 540 925 550 925 c 128,-1,34
 560 925 560 925 567.5 917.5 c 128,-1,35
 575 910 575 910 575 900 c 2,36,-1
 575 700 l 2,37,38
 575 690 575 690 567.5 682.5 c 128,-1,27
 560 675 560 675 550 675 c 128,-1,28
EndSplineSet
Validated: 1
EndChar

StartChar: K
Encoding: 75 75 58
Width: 350
GlyphClass: 1
Flags: W
HStem: 805 20G<291.5 305>
VStem: 25 300
LayerCount: 2
Fore
SplineSet
325 0 m 0,0,1
 325 -10 325 -10 317.5 -17.5 c 128,-1,2
 310 -25 310 -25 300 -25 c 0,3,4
 287 -25 287 -25 279 -13 c 2,5,-1
 29 387 l 2,6,7
 25 392 25 392 25 400 c 128,-1,8
 25 408 25 408 29 413 c 2,9,-1
 279 813 l 2,10,11
 283 825 283 825 300 825 c 0,12,13
 310 825 310 825 317.5 817.5 c 128,-1,14
 325 810 325 810 325 800 c 0,15,16
 325 792 325 792 321 787 c 2,17,-1
 79 400 l 1,18,-1
 321 13 l 2,19,20
 325 8 325 8 325 0 c 0,0,1
EndSplineSet
Validated: 1
EndChar

StartChar: L
Encoding: 76 76 59
Width: 600
GlyphClass: 1
Flags: W
HStem: 805 20G<291.5 306.5 545 555> 905 20G<545 555>
VStem: 525 50<675.183 924.817>
LayerCount: 2
Fore
SplineSet
575 400 m 128,-1,1
 575 392 575 392 571 387 c 2,2,-1
 321 -13 l 2,3,4
 317 -25 317 -25 300 -25 c 0,5,6
 287 -25 287 -25 279 -13 c 2,7,8
 279 -13 279 -13 29 387 c 0,9,10
 25 392 25 392 25 400 c 128,-1,11
 25 408 25 408 29 413 c 2,12,-1
 279 813 l 2,13,14
 283 825 283 825 300 825 c 0,15,16
 313 825 313 825 321 813 c 2,17,-1
 571 413 l 2,18,0
 575 408 575 408 575 400 c 128,-1,1
521 400 m 1,19,-1
 300 753 l 1,20,-1
 79 400 l 1,21,-1
 300 47 l 1,22,-1
 521 400 l 1,19,-1
550 675 m 128,-1,24
 540 675 540 675 532.5 682.5 c 128,-1,25
 525 690 525 690 525 700 c 2,26,-1
 525 900 l 2,27,28
 525 910 525 910 532.5 917.5 c 128,-1,29
 540 925 540 925 550 925 c 128,-1,30
 560 925 560 925 567.5 917.5 c 128,-1,31
 575 910 575 910 575 900 c 2,32,-1
 575 700 l 2,33,34
 575 690 575 690 567.5 682.5 c 128,-1,23
 560 675 560 675 550 675 c 128,-1,24
EndSplineSet
Validated: 1
EndChar

StartChar: M
Encoding: 77 77 60
Width: 350
GlyphClass: 1
Flags: W
HStem: 805 20G<45 56.5>
VStem: 25 300
LayerCount: 2
Fore
SplineSet
138 721 m 1024,0,-1
50 -25 m 0,1,2
 40 -25 40 -25 32.5 -17.5 c 128,-1,3
 25 -10 25 -10 25 0 c 0,4,5
 25 8 25 8 29 13 c 2,6,-1
 271 400 l 1,7,-1
 29 787 l 2,8,9
 25 792 25 792 25 800 c 0,10,11
 25 810 25 810 32.5 817.5 c 128,-1,12
 40 825 40 825 50 825 c 0,13,14
 63 825 63 825 71 813 c 2,15,-1
 321 413 l 2,16,17
 325 408 325 408 325 400 c 128,-1,18
 325 392 325 392 321 387 c 2,19,-1
 71 -13 l 2,20,21
 67 -25 67 -25 50 -25 c 0,1,2
EndSplineSet
Validated: 1
EndChar

StartChar: N
Encoding: 78 78 61
Width: 600
GlyphClass: 1
Flags: W
HStem: 375 21G<543.5 555> 805 20G<295 306.5>
LayerCount: 2
Fore
SplineSet
575 400 m 0,0,1
 575 390 575 390 567.5 382.5 c 128,-1,2
 560 375 560 375 550 375 c 0,3,4
 537 375 537 375 529 387 c 2,5,-1
 279 787 l 2,6,7
 275 792 275 792 275 800 c 0,8,9
 275 810 275 810 282.5 817.5 c 128,-1,10
 290 825 290 825 300 825 c 0,11,12
 313 825 313 825 321 813 c 2,13,-1
 571 413 l 2,14,15
 575 408 575 408 575 400 c 0,0,1
325 0 m 0,16,17
 325 -10 325 -10 317.5 -17.5 c 128,-1,18
 310 -25 310 -25 300 -25 c 0,19,20
 287 -25 287 -25 279 -13 c 2,21,-1
 29 387 l 2,22,23
 25 392 25 392 25 400 c 0,24,25
 25 410 25 410 32.5 417.5 c 128,-1,26
 40 425 40 425 50 425 c 0,27,28
 63 425 63 425 71 413 c 2,29,-1
 321 13 l 2,30,31
 325 8 325 8 325 0 c 0,16,17
EndSplineSet
Validated: 1
EndChar

StartChar: O
Encoding: 79 79 62
Width: 600
GlyphClass: 1
Flags: W
HStem: 375 50<25.1831 505>
LayerCount: 2
Fore
SplineSet
281 208 m 1024,0,-1
300 -25 m 0,1,2
 290 -25 290 -25 282.5 -17.5 c 128,-1,3
 275 -10 275 -10 275 0 c 0,4,5
 275 8 275 8 279 13 c 2,6,-1
 505 375 l 1,7,-1
 50 375 l 2,8,9
 40 375 40 375 32.5 382.5 c 128,-1,10
 25 390 25 390 25 400 c 128,-1,11
 25 410 25 410 32.5 417.5 c 128,-1,12
 40 425 40 425 50 425 c 2,13,-1
 550 425 l 2,14,15
 560 425 560 425 567.5 417.5 c 128,-1,16
 575 410 575 410 575 400 c 0,17,18
 575 392 575 392 571 387 c 2,19,-1
 321 -13 l 2,20,21
 317 -25 317 -25 300 -25 c 0,1,2
EndSplineSet
Validated: 1
EndChar

StartChar: P
Encoding: 80 80 63
Width: 600
GlyphClass: 1
Flags: W
HStem: 375 21G<45 58.5 543.5 555> 805 20G<291.5 306.5>
LayerCount: 2
Fore
SplineSet
575 400 m 0,0,1
 575 390 575 390 567.5 382.5 c 128,-1,2
 560 375 560 375 550 375 c 0,3,4
 537 375 537 375 529 387 c 2,5,-1
 300 753 l 1,6,-1
 71 387 l 2,7,8
 67 375 67 375 50 375 c 0,9,10
 40 375 40 375 32.5 382.5 c 128,-1,11
 25 390 25 390 25 400 c 0,12,13
 25 408 25 408 29 413 c 2,14,-1
 279 813 l 2,15,16
 283 825 283 825 300 825 c 0,17,18
 313 825 313 825 321 813 c 2,19,-1
 571 413 l 2,20,21
 575 408 575 408 575 400 c 0,0,1
EndSplineSet
Validated: 1
EndChar

StartChar: Q
Encoding: 81 81 64
Width: 600
GlyphClass: 1
Flags: W
LayerCount: 2
Fore
SplineSet
550 425 m 0,0,1
 560 425 560 425 567.5 417.5 c 128,-1,2
 575 410 575 410 575 400 c 0,3,4
 575 392 575 392 571 387 c 2,5,-1
 321 -13 l 2,6,7
 317 -25 317 -25 300 -25 c 0,8,9
 287 -25 287 -25 279 -13 c 2,10,-1
 29 387 l 2,11,12
 25 392 25 392 25 400 c 0,13,14
 25 410 25 410 32.5 417.5 c 128,-1,15
 40 425 40 425 50 425 c 0,16,17
 63 425 63 425 71 413 c 2,18,-1
 300 47 l 1,19,-1
 529 413 l 2,20,21
 533 425 533 425 550 425 c 0,0,1
EndSplineSet
Validated: 1
EndChar

StartChar: R
Encoding: 82 82 65
Width: 600
GlyphClass: 1
Flags: W
HStem: 375 21G<45 58.5> 805 20G<291.5 306.5 545 555> 905 20G<545 555>
VStem: 525 50<675.183 924.817>
LayerCount: 2
Fore
SplineSet
254 709 m 1024,0,-1
300 -25 m 0,1,2
 290 -25 290 -25 282.5 -17.5 c 128,-1,3
 275 -10 275 -10 275 0 c 0,4,5
 275 8 275 8 279 13 c 2,6,-1
 521 400 l 1,7,-1
 300 753 l 1,8,-1
 71 387 l 2,9,10
 67 375 67 375 50 375 c 0,11,12
 40 375 40 375 32.5 382.5 c 128,-1,13
 25 390 25 390 25 400 c 0,14,15
 25 408 25 408 29 413 c 2,16,-1
 279 813 l 2,17,18
 283 825 283 825 300 825 c 0,19,20
 313 825 313 825 321 813 c 2,21,-1
 571 413 l 2,22,23
 575 408 575 408 575 400 c 128,-1,24
 575 392 575 392 571 387 c 2,25,-1
 321 -13 l 2,26,27
 317 -25 317 -25 300 -25 c 0,1,2
550 675 m 128,-1,29
 540 675 540 675 532.5 682.5 c 128,-1,30
 525 690 525 690 525 700 c 2,31,-1
 525 900 l 2,32,33
 525 910 525 910 532.5 917.5 c 128,-1,34
 540 925 540 925 550 925 c 128,-1,35
 560 925 560 925 567.5 917.5 c 128,-1,36
 575 910 575 910 575 900 c 2,37,-1
 575 700 l 2,38,39
 575 690 575 690 567.5 682.5 c 128,-1,28
 560 675 560 675 550 675 c 128,-1,29
EndSplineSet
Validated: 1
EndChar

StartChar: S
Encoding: 83 83 66
Width: 600
GlyphClass: 1
Flags: W
HStem: 375 21G<543.5 555> 805 20G<291.5 306.5>
LayerCount: 2
Fore
SplineSet
575 400 m 0,0,1
 575 390 575 390 567.5 382.5 c 128,-1,2
 560 375 560 375 550 375 c 0,3,4
 537 375 537 375 529 387 c 2,5,-1
 300 753 l 1,6,-1
 79 400 l 1,7,-1
 321 13 l 2,8,9
 325 8 325 8 325 0 c 0,10,11
 325 -10 325 -10 317.5 -17.5 c 128,-1,12
 310 -25 310 -25 300 -25 c 0,13,14
 287 -25 287 -25 279 -13 c 2,15,-1
 29 387 l 2,16,17
 25 392 25 392 25 400 c 128,-1,18
 25 408 25 408 29 413 c 2,19,-1
 279 813 l 2,20,21
 283 825 283 825 300 825 c 0,22,23
 313 825 313 825 321 813 c 2,24,-1
 571 413 l 2,25,26
 575 408 575 408 575 400 c 0,0,1
EndSplineSet
Validated: 1
EndChar

StartChar: T
Encoding: 84 84 67
Width: 600
GlyphClass: 1
Flags: W
HStem: 375 21G<45 58.5> 805 20G<291.5 305>
LayerCount: 2
Fore
SplineSet
50 375 m 0,0,1
 40 375 40 375 32.5 382.5 c 128,-1,2
 25 390 25 390 25 400 c 0,3,4
 25 408 25 408 29 413 c 2,5,-1
 279 813 l 2,6,7
 283 825 283 825 300 825 c 0,8,9
 310 825 310 825 317.5 817.5 c 128,-1,10
 325 810 325 810 325 800 c 0,11,12
 325 792 325 792 321 787 c 2,13,-1
 71 387 l 2,14,15
 67 375 67 375 50 375 c 0,0,1
300 -25 m 0,16,17
 290 -25 290 -25 282.5 -17.5 c 128,-1,18
 275 -10 275 -10 275 0 c 0,19,20
 275 8 275 8 279 13 c 2,21,-1
 529 413 l 2,22,23
 533 425 533 425 550 425 c 0,24,25
 560 425 560 425 567.5 417.5 c 128,-1,26
 575 410 575 410 575 400 c 0,27,28
 575 392 575 392 571 387 c 2,29,-1
 321 -13 l 2,30,31
 317 -25 317 -25 300 -25 c 0,16,17
EndSplineSet
Validated: 1
EndChar

StartChar: U
Encoding: 85 85 68
Width: 600
GlyphClass: 1
Flags: W
HStem: 375 50<95 574.817>
LayerCount: 2
Fore
SplineSet
279 206 m 1024,0,-1
25 400 m 0,1,2
 25 410 25 410 32.5 417.5 c 128,-1,3
 40 425 40 425 50 425 c 2,4,-1
 550 425 l 2,5,6
 560 425 560 425 567.5 417.5 c 128,-1,7
 575 410 575 410 575 400 c 128,-1,8
 575 390 575 390 567.5 382.5 c 128,-1,9
 560 375 560 375 550 375 c 2,10,-1
 95 375 l 1,11,-1
 321 13 l 2,12,13
 325 8 325 8 325 0 c 0,14,15
 325 -10 325 -10 317.5 -17.5 c 128,-1,16
 310 -25 310 -25 300 -25 c 0,17,18
 287 -25 287 -25 279 -13 c 2,19,-1
 29 387 l 2,20,21
 25 392 25 392 25 400 c 0,1,2
EndSplineSet
Validated: 1
EndChar

StartChar: V
Encoding: 86 86 69
Width: 600
GlyphClass: 1
Flags: W
HStem: 805 20G<295 306.5 545 555> 905 20G<545 555>
VStem: 525 50<675.183 924.817>
LayerCount: 2
Fore
SplineSet
267 710 m 1024,0,-1
275 800 m 0,1,2
 275 810 275 810 282.5 817.5 c 128,-1,3
 290 825 290 825 300 825 c 0,4,5
 313 825 313 825 321 813 c 2,6,-1
 571 413 l 2,7,8
 575 408 575 408 575 400 c 128,-1,9
 575 392 575 392 571 387 c 2,10,-1
 321 -13 l 2,11,12
 317 -25 317 -25 300 -25 c 0,13,14
 287 -25 287 -25 279 -13 c 2,15,-1
 29 387 l 2,16,17
 25 392 25 392 25 400 c 0,18,19
 25 410 25 410 32.5 417.5 c 128,-1,20
 40 425 40 425 50 425 c 0,21,22
 63 425 63 425 71 413 c 2,23,-1
 300 47 l 1,24,-1
 521 400 l 1,25,-1
 279 787 l 2,26,27
 275 792 275 792 275 800 c 0,1,2
550 675 m 128,-1,29
 540 675 540 675 532.5 682.5 c 128,-1,30
 525 690 525 690 525 700 c 2,31,-1
 525 900 l 2,32,33
 525 910 525 910 532.5 917.5 c 128,-1,34
 540 925 540 925 550 925 c 128,-1,35
 560 925 560 925 567.5 917.5 c 128,-1,36
 575 910 575 910 575 900 c 2,37,-1
 575 700 l 2,38,39
 575 690 575 690 567.5 682.5 c 128,-1,28
 560 675 560 675 550 675 c 128,-1,29
EndSplineSet
Validated: 1
EndChar

StartChar: W
Encoding: 87 87 70
Width: 600
GlyphClass: 1
Flags: W
HStem: 375 50<95 574.817> 805 20G<291.5 305>
LayerCount: 2
Fore
SplineSet
300 825 m 0,0,1
 310 825 310 825 317.5 817.5 c 128,-1,2
 325 810 325 810 325 800 c 0,3,4
 325 792 325 792 321 787 c 2,5,-1
 95 425 l 1,6,-1
 550 425 l 2,7,8
 560 425 560 425 567.5 417.5 c 128,-1,9
 575 410 575 410 575 400 c 128,-1,10
 575 390 575 390 567.5 382.5 c 128,-1,11
 560 375 560 375 550 375 c 2,12,-1
 95 375 l 1,13,-1
 321 13 l 2,14,15
 325 8 325 8 325 0 c 0,16,17
 325 -10 325 -10 317.5 -17.5 c 128,-1,18
 310 -25 310 -25 300 -25 c 0,19,20
 287 -25 287 -25 279 -13 c 2,21,-1
 29 387 l 2,22,23
 25 392 25 392 25 400 c 128,-1,24
 25 408 25 408 29 413 c 2,25,-1
 279 813 l 2,26,27
 283 825 283 825 300 825 c 0,0,1
EndSplineSet
Validated: 1
EndChar

StartChar: X
Encoding: 88 88 71
Width: 600
GlyphClass: 1
Flags: W
HStem: 375 21G<45 58.5> 805 20G<291.5 306.5>
LayerCount: 2
Fore
SplineSet
300 -25 m 0,0,1
 290 -25 290 -25 282.5 -17.5 c 128,-1,2
 275 -10 275 -10 275 0 c 0,3,4
 275 8 275 8 279 13 c 2,5,-1
 521 400 l 1,6,-1
 300 753 l 1,7,-1
 71 387 l 2,8,9
 67 375 67 375 50 375 c 0,10,11
 40 375 40 375 32.5 382.5 c 128,-1,12
 25 390 25 390 25 400 c 0,13,14
 25 408 25 408 29 413 c 2,15,-1
 279 813 l 2,16,17
 283 825 283 825 300 825 c 0,18,19
 313 825 313 825 321 813 c 2,20,-1
 571 413 l 2,21,22
 575 408 575 408 575 400 c 128,-1,23
 575 392 575 392 571 387 c 2,24,-1
 321 -13 l 2,25,26
 317 -25 317 -25 300 -25 c 0,0,1
EndSplineSet
Validated: 1
EndChar

StartChar: Z
Encoding: 90 90 72
Width: 600
GlyphClass: 1
Flags: W
HStem: 375 21G<543.5 555> 805 20G<291.5 306.5 545 555> 905 20G<545 555>
VStem: 525 50<675.183 924.817>
LayerCount: 2
Fore
SplineSet
247 713 m 1024,0,-1
575 400 m 0,1,2
 575 390 575 390 567.5 382.5 c 128,-1,3
 560 375 560 375 550 375 c 0,4,5
 537 375 537 375 529 387 c 2,6,-1
 300 753 l 1,7,-1
 79 400 l 1,8,-1
 321 13 l 2,9,10
 325 8 325 8 325 0 c 0,11,12
 325 -10 325 -10 317.5 -17.5 c 128,-1,13
 310 -25 310 -25 300 -25 c 0,14,15
 287 -25 287 -25 279 -13 c 2,16,-1
 29 387 l 2,17,18
 25 392 25 392 25 400 c 128,-1,19
 25 408 25 408 29 413 c 2,20,-1
 279 813 l 2,21,22
 283 825 283 825 300 825 c 0,23,24
 313 825 313 825 321 813 c 2,25,-1
 571 413 l 2,26,27
 575 408 575 408 575 400 c 0,1,2
550 675 m 128,-1,29
 540 675 540 675 532.5 682.5 c 128,-1,30
 525 690 525 690 525 700 c 2,31,-1
 525 900 l 2,32,33
 525 910 525 910 532.5 917.5 c 128,-1,34
 540 925 540 925 550 925 c 128,-1,35
 560 925 560 925 567.5 917.5 c 128,-1,36
 575 910 575 910 575 900 c 2,37,-1
 575 700 l 2,38,39
 575 690 575 690 567.5 682.5 c 128,-1,28
 560 675 560 675 550 675 c 128,-1,29
EndSplineSet
Validated: 1
EndChar

StartChar: a
Encoding: 97 97 73
Width: 400
GlyphClass: 1
Flags: W
HStem: 805 20G<69.5 80.5>
VStem: 50 50<87 817.265>
LayerCount: 2
Fore
SplineSet
140 717 m 1024,0,-1
75 -25 m 0,1,2
 64 -25 64 -25 57 -17.5 c 128,-1,3
 50 -10 50 -10 50 0 c 2,4,-1
 50 800 l 2,5,6
 50 810 50 810 57 817.5 c 128,-1,7
 64 825 64 825 75 825 c 128,-1,8
 86 825 86 825 93 817.5 c 128,-1,9
 100 810 100 810 100 800 c 2,10,-1
 100 87 l 1,11,-1
 304 413 l 2,12,13
 308 425 308 425 325 425 c 0,14,15
 336 425 336 425 343 417.5 c 128,-1,16
 350 410 350 410 350 400 c 0,17,18
 350 392 350 392 346 387 c 2,19,-1
 96 -13 l 2,20,21
 92 -25 92 -25 75 -25 c 0,1,2
EndSplineSet
Validated: 1
EndChar

StartChar: b
Encoding: 98 98 74
Width: 400
GlyphClass: 1
Flags: W
HStem: 375 21G<69.5 79 315.5 330.5> 805 20G<196 209.5 319.5 330.5> 905 20G<319.5 330.5>
VStem: 50 49<382.735 415.386> 300 50<382.735 412.38 682.735 917.265>
LayerCount: 2
Fore
SplineSet
350 400 m 0,0,1
 350 390 350 390 343 382.5 c 128,-1,2
 336 375 336 375 325 375 c 0,3,4
 306 375 306 375 301 393 c 2,5,-1
 200 716 l 1,6,-1
 99 393 l 2,7,8
 99 392 99 392 97 388 c 128,-1,9
 95 384 95 384 89 379.5 c 128,-1,10
 83 375 83 375 75 375 c 0,11,12
 64 375 64 375 57 382.5 c 128,-1,13
 50 390 50 390 50 400 c 0,14,15
 50 405 50 405 51 407 c 2,16,-1
 176 807 l 2,17,18
 176 808 176 808 178 812 c 128,-1,19
 180 816 180 816 186 820.5 c 128,-1,20
 192 825 192 825 200 825 c 0,21,22
 219 825 219 825 224 807 c 2,23,-1
 349 407 l 2,24,25
 350 405 350 405 350 400 c 0,0,1
325 675 m 128,-1,27
 314 675 314 675 307 682.5 c 128,-1,28
 300 690 300 690 300 700 c 2,29,-1
 300 900 l 2,30,31
 300 910 300 910 307 917.5 c 128,-1,32
 314 925 314 925 325 925 c 128,-1,33
 336 925 336 925 343 917.5 c 128,-1,34
 350 910 350 910 350 900 c 2,35,-1
 350 700 l 2,36,37
 350 690 350 690 343 682.5 c 128,-1,26
 336 675 336 675 325 675 c 128,-1,27
EndSplineSet
Validated: 1
EndChar

StartChar: c
Encoding: 99 99 75
Width: 400
GlyphClass: 1
Flags: W
HStem: -25 50<164.869 236.107> 775 50<187.348 242.78>
VStem: 50 50<185.15 592.154> 300 50<183.468 417.265>
LayerCount: 2
Fore
SplineSet
50 400 m 0,0,1
 50 458 50 458 59.5 526.5 c 128,-1,2
 69 595 69 595 88.5 664.5 c 128,-1,3
 108 734 108 734 144 779.5 c 128,-1,4
 180 825 180 825 225 825 c 0,5,6
 236 825 236 825 243 817.5 c 128,-1,7
 250 810 250 810 250 800 c 128,-1,8
 250 790 250 790 243 782.5 c 128,-1,9
 236 775 236 775 225 775 c 0,10,11
 196 775 196 775 171 730.5 c 128,-1,12
 146 686 146 686 130 626 c 0,13,14
 100 515 100 515 100 400 c 0,15,16
 100 187 100 187 146 81 c 0,17,18
 170 25 170 25 200 25 c 0,19,20
 245 25 245 25 272.5 136.5 c 128,-1,21
 300 248 300 248 300 400 c 0,22,23
 300 410 300 410 307 417.5 c 128,-1,24
 314 425 314 425 325 425 c 128,-1,25
 336 425 336 425 343 417.5 c 128,-1,26
 350 410 350 410 350 400 c 0,27,28
 350 343 350 343 346 281.5 c 128,-1,29
 342 220 342 220 321 130 c 128,-1,30
 300 40 300 40 263 3 c 0,31,32
 235 -25 235 -25 200 -25 c 0,33,34
 108 -25 108 -25 71 159 c 0,35,36
 50 263 50 263 50 400 c 0,0,1
EndSplineSet
Validated: 1
EndChar

StartChar: d
Encoding: 100 100 76
Width: 500
GlyphClass: 1
Flags: W
HStem: 375 21G<69.5 83.5> 805 20G<316.5 330.5 419.5 430.5> 905 20G<419.5 430.5>
VStem: 400 50<682.735 917.265>
LayerCount: 2
Fore
SplineSet
325 425 m 0,0,1
 336 425 336 425 343 417.5 c 128,-1,2
 350 410 350 410 350 400 c 0,3,4
 350 392 350 392 346 387 c 2,5,-1
 96 -13 l 2,6,7
 92 -25 92 -25 75 -25 c 0,8,9
 64 -25 64 -25 57 -17.5 c 128,-1,10
 50 -10 50 -10 50 0 c 0,11,12
 50 8 50 8 54 13 c 2,13,-1
 304 413 l 2,14,15
 308 425 308 425 325 425 c 0,0,1
75 375 m 0,16,17
 64 375 64 375 57 382.5 c 128,-1,18
 50 390 50 390 50 400 c 0,19,20
 50 408 50 408 54 413 c 2,21,-1
 304 813 l 2,22,23
 308 825 308 825 325 825 c 0,24,25
 336 825 336 825 343 817.5 c 128,-1,26
 350 810 350 810 350 800 c 0,27,28
 350 792 350 792 346 787 c 2,29,-1
 96 387 l 2,30,31
 92 375 92 375 75 375 c 0,16,17
425 675 m 128,-1,33
 414 675 414 675 407 682.5 c 128,-1,34
 400 690 400 690 400 700 c 2,35,-1
 400 900 l 2,36,37
 400 910 400 910 407 917.5 c 128,-1,38
 414 925 414 925 425 925 c 128,-1,39
 436 925 436 925 443 917.5 c 128,-1,40
 450 910 450 910 450 900 c 2,41,-1
 450 700 l 2,42,43
 450 690 450 690 443 682.5 c 128,-1,32
 436 675 436 675 425 675 c 128,-1,33
EndSplineSet
Validated: 1
EndChar

StartChar: e
Encoding: 101 101 77
Width: 400
GlyphClass: 1
Flags: W
HStem: 805 20G<319.5 330.5>
VStem: 300 50<87 817.265>
LayerCount: 2
Fore
SplineSet
166 694 m 1024,0,-1
350 0 m 2,1,2
 350 -10 350 -10 343 -17.5 c 128,-1,3
 336 -25 336 -25 325 -25 c 0,4,5
 312 -25 312 -25 304 -13 c 2,6,-1
 54 387 l 2,7,8
 50 392 50 392 50 400 c 0,9,10
 50 410 50 410 57 417.5 c 128,-1,11
 64 425 64 425 75 425 c 0,12,13
 88 425 88 425 96 413 c 2,14,-1
 300 87 l 1,15,-1
 300 800 l 2,16,17
 300 810 300 810 307 817.5 c 128,-1,18
 314 825 314 825 325 825 c 128,-1,19
 336 825 336 825 343 817.5 c 128,-1,20
 350 810 350 810 350 800 c 2,21,-1
 350 0 l 2,1,2
EndSplineSet
Validated: 1
EndChar

StartChar: f
Encoding: 102 102 78
Width: 400
GlyphClass: 1
Flags: W
HStem: -25 50<181.472 260.123> 775 50<157.22 218.347>
VStem: 50 50<184.631 417.265> 300 50<185.547 615.369>
LayerCount: 2
Fore
SplineSet
300 400 m 0,0,1
 300 556 300 556 264.5 665.5 c 128,-1,2
 229 775 229 775 175 775 c 0,3,4
 164 775 164 775 157 782.5 c 128,-1,5
 150 790 150 790 150 800 c 128,-1,6
 150 810 150 810 157 817.5 c 128,-1,7
 164 825 164 825 175 825 c 0,8,9
 234 825 234 825 275 760 c 128,-1,10
 316 695 316 695 333 602 c 128,-1,11
 350 509 350 509 350 400 c 2,12,-1
 350 393 l 2,13,14
 350 308 350 308 348.5 262.5 c 128,-1,15
 347 217 347 217 342 157 c 128,-1,16
 337 97 337 97 323.5 60 c 128,-1,17
 310 23 310 23 288 1 c 0,18,19
 262 -25 262 -25 225 -25 c 0,20,21
 166 -25 166 -25 125 40 c 128,-1,22
 84 105 84 105 67 198 c 128,-1,23
 50 291 50 291 50 400 c 0,24,25
 50 410 50 410 57 417.5 c 128,-1,26
 64 425 64 425 75 425 c 128,-1,27
 86 425 86 425 93 417.5 c 128,-1,28
 100 410 100 410 100 400 c 0,29,30
 100 244 100 244 135.5 134.5 c 128,-1,31
 171 25 171 25 225 25 c 0,32,33
 275 25 275 25 291 150 c 0,34,35
 300 219 300 219 300 400 c 0,0,1
EndSplineSet
Validated: 1
EndChar

StartChar: g
Encoding: 103 103 79
Width: 500
GlyphClass: 1
Flags: W
HStem: 805 20G<316.5 330.5 419.5 430.5> 905 20G<419.5 430.5>
VStem: 400 50<682.735 917.265>
LayerCount: 2
Fore
SplineSet
350 0 m 0,0,1
 350 -10 350 -10 343 -17.5 c 128,-1,2
 336 -25 336 -25 325 -25 c 0,3,4
 312 -25 312 -25 304 -13 c 2,5,-1
 54 387 l 2,6,7
 50 392 50 392 50 400 c 128,-1,8
 50 408 50 408 54 413 c 2,9,-1
 304 813 l 2,10,11
 308 825 308 825 325 825 c 0,12,13
 336 825 336 825 343 817.5 c 128,-1,14
 350 810 350 810 350 800 c 0,15,16
 350 792 350 792 346 787 c 2,17,-1
 104 400 l 1,18,-1
 346 13 l 2,19,20
 350 8 350 8 350 0 c 0,0,1
425 675 m 128,-1,22
 414 675 414 675 407 682.5 c 128,-1,23
 400 690 400 690 400 700 c 2,24,-1
 400 900 l 2,25,26
 400 910 400 910 407 917.5 c 128,-1,27
 414 925 414 925 425 925 c 128,-1,28
 436 925 436 925 443 917.5 c 128,-1,29
 450 910 450 910 450 900 c 2,30,-1
 450 700 l 2,31,32
 450 690 450 690 443 682.5 c 128,-1,21
 436 675 436 675 425 675 c 128,-1,22
EndSplineSet
Validated: 1
EndChar

StartChar: h
Encoding: 104 104 80
Width: 400
GlyphClass: 1
Flags: W
HStem: -25 50<160.262 239.738> 775 50<160.262 239.738>
VStem: 50 50<188.228 611.772> 300 50<188.228 611.772>
LayerCount: 2
Fore
SplineSet
200 825 m 128,-1,1
 239 825 239 825 269 795 c 0,2,3
 350 714 350 714 350 400 c 128,-1,4
 350 86 350 86 269 5 c 0,5,6
 239 -25 239 -25 200 -25 c 128,-1,7
 161 -25 161 -25 131 5 c 0,8,9
 50 86 50 86 50 400 c 128,-1,10
 50 714 50 714 131 795 c 0,11,0
 161 825 161 825 200 825 c 128,-1,1
200 775 m 128,-1,13
 181 775 181 775 166 760 c 0,14,15
 136 730 136 730 119 644 c 0,16,17
 100 552 100 552 100 400 c 128,-1,18
 100 248 100 248 119 156 c 0,19,20
 136 70 136 70 166 40 c 0,21,22
 181 25 181 25 200 25 c 128,-1,23
 219 25 219 25 234 40 c 0,24,25
 264 70 264 70 281 156 c 0,26,27
 300 248 300 248 300 400 c 128,-1,28
 300 552 300 552 281 644 c 0,29,30
 264 730 264 730 234 760 c 0,31,12
 219 775 219 775 200 775 c 128,-1,13
EndSplineSet
Validated: 1
EndChar

StartChar: j
Encoding: 106 106 81
Width: 400
GlyphClass: 1
Flags: W
HStem: -25 50<164.869 236.107> 775 50<187.348 242.78> 905 20G<319.5 330.5> 905 20G<319.5 330.5>
VStem: 50 50<185.15 592.154> 300 50<183.468 417.265 682.735 917.265>
LayerCount: 2
Fore
SplineSet
50 400 m 0,0,1
 50 458 50 458 59.5 526.5 c 128,-1,2
 69 595 69 595 88.5 664.5 c 128,-1,3
 108 734 108 734 144 779.5 c 128,-1,4
 180 825 180 825 225 825 c 0,5,6
 236 825 236 825 243 817.5 c 128,-1,7
 250 810 250 810 250 800 c 128,-1,8
 250 790 250 790 243 782.5 c 128,-1,9
 236 775 236 775 225 775 c 0,10,11
 196 775 196 775 171 730.5 c 128,-1,12
 146 686 146 686 130 626 c 0,13,14
 100 515 100 515 100 400 c 0,15,16
 100 187 100 187 146 81 c 0,17,18
 170 25 170 25 200 25 c 0,19,20
 245 25 245 25 272.5 136.5 c 128,-1,21
 300 248 300 248 300 400 c 0,22,23
 300 410 300 410 307 417.5 c 128,-1,24
 314 425 314 425 325 425 c 128,-1,25
 336 425 336 425 343 417.5 c 128,-1,26
 350 410 350 410 350 400 c 0,27,28
 350 343 350 343 346 281.5 c 128,-1,29
 342 220 342 220 321 130 c 128,-1,30
 300 40 300 40 263 3 c 0,31,32
 235 -25 235 -25 200 -25 c 0,33,34
 108 -25 108 -25 71 159 c 0,35,36
 50 263 50 263 50 400 c 0,0,1
325 675 m 128,-1,38
 314 675 314 675 307 682.5 c 128,-1,39
 300 690 300 690 300 700 c 2,40,-1
 300 900 l 2,41,42
 300 910 300 910 307 917.5 c 128,-1,43
 314 925 314 925 325 925 c 128,-1,44
 336 925 336 925 343 917.5 c 128,-1,45
 350 910 350 910 350 900 c 2,46,-1
 350 700 l 2,47,48
 350 690 350 690 343 682.5 c 128,-1,37
 336 675 336 675 325 675 c 128,-1,38
EndSplineSet
Validated: 1
EndChar

StartChar: k
Encoding: 107 107 82
Width: 400
GlyphClass: 1
Flags: W
HStem: 805 20G<316.5 330.5>
VStem: 50 300
LayerCount: 2
Fore
SplineSet
350 0 m 0,0,1
 350 -10 350 -10 343 -17.5 c 128,-1,2
 336 -25 336 -25 325 -25 c 0,3,4
 312 -25 312 -25 304 -13 c 2,5,-1
 54 387 l 2,6,7
 50 392 50 392 50 400 c 128,-1,8
 50 408 50 408 54 413 c 2,9,-1
 304 813 l 2,10,11
 308 825 308 825 325 825 c 0,12,13
 336 825 336 825 343 817.5 c 128,-1,14
 350 810 350 810 350 800 c 0,15,16
 350 792 350 792 346 787 c 2,17,-1
 104 400 l 1,18,-1
 346 13 l 2,19,20
 350 8 350 8 350 0 c 0,0,1
EndSplineSet
Validated: 1
EndChar

StartChar: l
Encoding: 108 108 83
Width: 500
GlyphClass: 1
Flags: W
HStem: -25 50<160.262 239.738> 775 50<160.262 239.738> 905 20G<419.5 430.5> 905 20G<419.5 430.5>
VStem: 50 50<188.228 611.772> 300 50<188.228 611.772> 400 50<682.735 917.265>
LayerCount: 2
Fore
SplineSet
200 775 m 128,-1,1
 181 775 181 775 166 760 c 0,2,3
 136 730 136 730 119 644 c 0,4,5
 100 552 100 552 100 400 c 128,-1,6
 100 248 100 248 119 156 c 0,7,8
 136 70 136 70 166 40 c 0,9,10
 181 25 181 25 200 25 c 128,-1,11
 219 25 219 25 234 40 c 0,12,13
 264 70 264 70 281 156 c 0,14,15
 300 248 300 248 300 400 c 128,-1,16
 300 552 300 552 281 644 c 0,17,18
 264 730 264 730 234 760 c 0,19,0
 219 775 219 775 200 775 c 128,-1,1
200 825 m 128,-1,21
 239 825 239 825 269 795 c 0,22,23
 350 714 350 714 350 400 c 128,-1,24
 350 86 350 86 269 5 c 0,25,26
 239 -25 239 -25 200 -25 c 128,-1,27
 161 -25 161 -25 131 5 c 0,28,29
 50 86 50 86 50 400 c 128,-1,30
 50 714 50 714 131 795 c 0,31,20
 161 825 161 825 200 825 c 128,-1,21
425 675 m 128,-1,33
 414 675 414 675 407 682.5 c 128,-1,34
 400 690 400 690 400 700 c 2,35,-1
 400 900 l 2,36,37
 400 910 400 910 407 917.5 c 128,-1,38
 414 925 414 925 425 925 c 128,-1,39
 436 925 436 925 443 917.5 c 128,-1,40
 450 910 450 910 450 900 c 2,41,-1
 450 700 l 2,42,43
 450 690 450 690 443 682.5 c 128,-1,32
 436 675 436 675 425 675 c 128,-1,33
EndSplineSet
Validated: 1
EndChar

StartChar: m
Encoding: 109 109 84
Width: 400
GlyphClass: 1
Flags: W
HStem: 805 20G<69.5 81.5>
VStem: 50 300
LayerCount: 2
Fore
SplineSet
163 721 m 1024,0,-1
75 -25 m 0,1,2
 64 -25 64 -25 57 -17.5 c 128,-1,3
 50 -10 50 -10 50 0 c 0,4,5
 50 8 50 8 54 13 c 2,6,-1
 296 400 l 1,7,-1
 54 787 l 2,8,9
 50 792 50 792 50 800 c 0,10,11
 50 810 50 810 57 817.5 c 128,-1,12
 64 825 64 825 75 825 c 0,13,14
 88 825 88 825 96 813 c 2,15,-1
 346 413 l 2,16,17
 350 408 350 408 350 400 c 128,-1,18
 350 392 350 392 346 387 c 2,19,-1
 96 -13 l 2,20,21
 92 -25 92 -25 75 -25 c 0,1,2
EndSplineSet
Validated: 1
EndChar

StartChar: n
Encoding: 110 110 85
Width: 400
GlyphClass: 1
Flags: W
HStem: 375 21G<318.5 330.5> 805 20G<69.5 81.5>
VStem: 50 300<392 408>
LayerCount: 2
Fore
SplineSet
350 0 m 0,0,1
 350 -10 350 -10 343 -17.5 c 128,-1,2
 336 -25 336 -25 325 -25 c 0,3,4
 312 -25 312 -25 304 -13 c 2,5,-1
 54 387 l 2,6,7
 50 392 50 392 50 400 c 0,8,9
 50 410 50 410 57 417.5 c 128,-1,10
 64 425 64 425 75 425 c 0,11,12
 88 425 88 425 96 413 c 2,13,-1
 346 13 l 2,14,15
 350 8 350 8 350 0 c 0,0,1
350 400 m 0,16,17
 350 390 350 390 343 382.5 c 128,-1,18
 336 375 336 375 325 375 c 0,19,20
 312 375 312 375 304 387 c 2,21,-1
 54 787 l 2,22,23
 50 792 50 792 50 800 c 0,24,25
 50 810 50 810 57 817.5 c 128,-1,26
 64 825 64 825 75 825 c 0,27,28
 88 825 88 825 96 813 c 2,29,-1
 346 413 l 2,30,31
 350 408 350 408 350 400 c 0,16,17
EndSplineSet
Validated: 1
EndChar

StartChar: o
Encoding: 111 111 86
Width: 400
GlyphClass: 1
Flags: W
HStem: 375 21G<69.5 83.5> 805 20G<316.5 330.5>
VStem: 300 50<-17.265 713>
LayerCount: 2
Fore
SplineSet
325 -25 m 128,-1,1
 314 -25 314 -25 307 -17.5 c 128,-1,2
 300 -10 300 -10 300 0 c 2,3,-1
 300 713 l 1,4,-1
 96 387 l 2,5,6
 92 375 92 375 75 375 c 0,7,8
 64 375 64 375 57 382.5 c 128,-1,9
 50 390 50 390 50 400 c 0,10,11
 50 408 50 408 54 413 c 2,12,-1
 304 813 l 2,13,14
 308 825 308 825 325 825 c 0,15,16
 336 825 336 825 343 817.5 c 128,-1,17
 350 810 350 810 350 800 c 2,18,-1
 350 0 l 2,19,20
 350 -10 350 -10 343 -17.5 c 128,-1,0
 336 -25 336 -25 325 -25 c 128,-1,1
EndSplineSet
Validated: 1
EndChar

StartChar: p
Encoding: 112 112 87
Width: 400
GlyphClass: 1
Flags: W
HStem: 375 21G<69.5 79 315.5 330.5> 805 20G<196 209.5>
VStem: 50 49<382.735 415.386> 301 49<382.735 415.386>
LayerCount: 2
Fore
SplineSet
350 400 m 0,0,1
 350 390 350 390 343 382.5 c 128,-1,2
 336 375 336 375 325 375 c 0,3,4
 306 375 306 375 301 393 c 2,5,-1
 200 716 l 1,6,-1
 99 393 l 2,7,8
 99 392 99 392 97 388 c 128,-1,9
 95 384 95 384 89 379.5 c 128,-1,10
 83 375 83 375 75 375 c 0,11,12
 64 375 64 375 57 382.5 c 128,-1,13
 50 390 50 390 50 400 c 0,14,15
 50 405 50 405 51 407 c 2,16,-1
 176 807 l 2,17,18
 176 808 176 808 178 812 c 128,-1,19
 180 816 180 816 186 820.5 c 128,-1,20
 192 825 192 825 200 825 c 0,21,22
 219 825 219 825 224 807 c 2,23,-1
 349 407 l 2,24,25
 350 405 350 405 350 400 c 0,0,1
EndSplineSet
Validated: 1
EndChar

StartChar: q
Encoding: 113 113 88
Width: 400
GlyphClass: 1
Flags: W
VStem: 301 49<384.614 417.265>
LayerCount: 2
Fore
SplineSet
325 425 m 0,0,1
 336 425 336 425 343 417.5 c 128,-1,2
 350 410 350 410 350 400 c 0,3,4
 350 395 350 395 349 393 c 2,5,-1
 224 -7 l 2,6,7
 224 -8 224 -8 222 -12 c 128,-1,8
 220 -16 220 -16 214 -20.5 c 128,-1,9
 208 -25 208 -25 200 -25 c 0,10,11
 181 -25 181 -25 176 -7 c 2,12,-1
 51 393 l 2,13,14
 50 395 50 395 50 400 c 0,15,16
 50 410 50 410 57 417.5 c 128,-1,17
 64 425 64 425 75 425 c 0,18,19
 94 425 94 425 99 407 c 2,20,-1
 200 84 l 1,21,-1
 301 407 l 2,22,23
 301 408 301 408 303 412 c 128,-1,24
 305 416 305 416 311 420.5 c 128,-1,25
 317 425 317 425 325 425 c 0,0,1
EndSplineSet
Validated: 1
EndChar

StartChar: r
Encoding: 114 114 89
Width: 500
GlyphClass: 1
Flags: W
HStem: -25 50<157.22 218.545> 375 21G<69.5 80.5> 775 50<181.373 256.724> 905 20G<419.5 430.5> 905 20G<419.5 430.5>
VStem: 50 50<382.735 613.889> 300 50<186.111 623.053> 400 50<682.735 917.265>
LayerCount: 2
Fore
SplineSet
225 775 m 0,0,1
 171 775 171 775 135.5 665.5 c 128,-1,2
 100 556 100 556 100 400 c 0,3,4
 100 390 100 390 93 382.5 c 128,-1,5
 86 375 86 375 75 375 c 128,-1,6
 64 375 64 375 57 382.5 c 128,-1,7
 50 390 50 390 50 400 c 0,8,9
 50 522 50 522 74 631 c 128,-1,10
 98 740 98 740 149 791 c 0,11,12
 183 825 183 825 225 825 c 0,13,14
 321 825 321 825 340 657 c 0,15,16
 350 584 350 584 350 407 c 2,17,-1
 350 400 l 2,18,19
 350 278 350 278 326 169 c 128,-1,20
 302 60 302 60 251 9 c 0,21,22
 217 -25 217 -25 175 -25 c 0,23,24
 164 -25 164 -25 157 -17.5 c 128,-1,25
 150 -10 150 -10 150 0 c 128,-1,26
 150 10 150 10 157 17.5 c 128,-1,27
 164 25 164 25 175 25 c 0,28,29
 229 25 229 25 264.5 134.5 c 128,-1,30
 300 244 300 244 300 400 c 0,31,32
 300 501 300 501 298.5 555 c 128,-1,33
 297 609 297 609 286 675 c 128,-1,34
 275 741 275 741 253 763 c 0,35,36
 241 775 241 775 225 775 c 0,0,1
425 675 m 128,-1,38
 414 675 414 675 407 682.5 c 128,-1,39
 400 690 400 690 400 700 c 2,40,-1
 400 900 l 2,41,42
 400 910 400 910 407 917.5 c 128,-1,43
 414 925 414 925 425 925 c 128,-1,44
 436 925 436 925 443 917.5 c 128,-1,45
 450 910 450 910 450 900 c 2,46,-1
 450 700 l 2,47,48
 450 690 450 690 443 682.5 c 128,-1,37
 436 675 436 675 425 675 c 128,-1,38
EndSplineSet
Validated: 1
EndChar

StartChar: s
Encoding: 115 115 90
Width: 400
GlyphClass: 1
Flags: W
HStem: -25 50<181.653 242.78> 375 21G<319.5 330.5> 775 50<139.877 218.528>
VStem: 50 50<184.631 614.453> 300 50<382.735 615.369>
LayerCount: 2
Fore
SplineSet
175 825 m 0,0,1
 234 825 234 825 275 760 c 128,-1,2
 316 695 316 695 333 602 c 128,-1,3
 350 509 350 509 350 400 c 0,4,5
 350 390 350 390 343 382.5 c 128,-1,6
 336 375 336 375 325 375 c 128,-1,7
 314 375 314 375 307 382.5 c 128,-1,8
 300 390 300 390 300 400 c 0,9,10
 300 556 300 556 264.5 665.5 c 128,-1,11
 229 775 229 775 175 775 c 0,12,13
 125 775 125 775 109 650 c 0,14,15
 100 581 100 581 100 400 c 0,16,17
 100 244 100 244 135.5 134.5 c 128,-1,18
 171 25 171 25 225 25 c 0,19,20
 236 25 236 25 243 17.5 c 128,-1,21
 250 10 250 10 250 0 c 128,-1,22
 250 -10 250 -10 243 -17.5 c 128,-1,23
 236 -25 236 -25 225 -25 c 0,24,25
 166 -25 166 -25 125 40 c 128,-1,26
 84 105 84 105 67 198 c 128,-1,27
 50 291 50 291 50 400 c 2,28,-1
 50 407 l 2,29,30
 50 492 50 492 51.5 537.5 c 128,-1,31
 53 583 53 583 58 643 c 128,-1,32
 63 703 63 703 76.5 740 c 128,-1,33
 90 777 90 777 112 799 c 0,34,35
 138 825 138 825 175 825 c 0,0,1
EndSplineSet
Validated: 1
EndChar

StartChar: t
Encoding: 116 116 91
Width: 400
GlyphClass: 1
Flags: W
HStem: 375 21G<69.5 83.5> 805 20G<316.5 330.5>
VStem: 50 300<392 408>
LayerCount: 2
Fore
SplineSet
325 425 m 0,0,1
 336 425 336 425 343 417.5 c 128,-1,2
 350 410 350 410 350 400 c 0,3,4
 350 392 350 392 346 387 c 2,5,-1
 96 -13 l 2,6,7
 92 -25 92 -25 75 -25 c 0,8,9
 64 -25 64 -25 57 -17.5 c 128,-1,10
 50 -10 50 -10 50 0 c 0,11,12
 50 8 50 8 54 13 c 2,13,-1
 304 413 l 2,14,15
 308 425 308 425 325 425 c 0,0,1
75 375 m 0,16,17
 64 375 64 375 57 382.5 c 128,-1,18
 50 390 50 390 50 400 c 0,19,20
 50 408 50 408 54 413 c 2,21,-1
 304 813 l 2,22,23
 308 825 308 825 325 825 c 0,24,25
 336 825 336 825 343 817.5 c 128,-1,26
 350 810 350 810 350 800 c 0,27,28
 350 792 350 792 346 787 c 2,29,-1
 96 387 l 2,30,31
 92 375 92 375 75 375 c 0,16,17
EndSplineSet
Validated: 1
EndChar

StartChar: u
Encoding: 117 117 92
Width: 400
GlyphClass: 1
Flags: W
HStem: 375 21G<318.5 330.5> 805 20G<69.5 81.5>
VStem: 50 50<-17.265 713>
LayerCount: 2
Fore
SplineSet
350 400 m 0,0,1
 350 390 350 390 343 382.5 c 128,-1,2
 336 375 336 375 325 375 c 0,3,4
 312 375 312 375 304 387 c 2,5,-1
 100 713 l 1,6,-1
 100 0 l 2,7,8
 100 -10 100 -10 93 -17.5 c 128,-1,9
 86 -25 86 -25 75 -25 c 128,-1,10
 64 -25 64 -25 57 -17.5 c 128,-1,11
 50 -10 50 -10 50 0 c 2,12,-1
 50 800 l 2,13,14
 50 810 50 810 57 817.5 c 128,-1,15
 64 825 64 825 75 825 c 0,16,17
 88 825 88 825 96 813 c 2,18,-1
 346 413 l 2,19,20
 350 408 350 408 350 400 c 0,0,1
EndSplineSet
Validated: 1
EndChar

StartChar: v
Encoding: 118 118 93
Width: 500
GlyphClass: 1
Flags: W
HStem: -25 50<181.472 260.123> 775 50<157.22 218.347> 905 20G<419.5 430.5> 905 20G<419.5 430.5>
VStem: 50 50<184.631 417.265> 300 50<185.547 615.369> 400 50<682.735 917.265>
LayerCount: 2
Fore
SplineSet
300 400 m 0,0,1
 300 556 300 556 264.5 665.5 c 128,-1,2
 229 775 229 775 175 775 c 0,3,4
 164 775 164 775 157 782.5 c 128,-1,5
 150 790 150 790 150 800 c 128,-1,6
 150 810 150 810 157 817.5 c 128,-1,7
 164 825 164 825 175 825 c 0,8,9
 234 825 234 825 275 760 c 128,-1,10
 316 695 316 695 333 602 c 128,-1,11
 350 509 350 509 350 400 c 2,12,-1
 350 393 l 2,13,14
 350 308 350 308 348.5 262.5 c 128,-1,15
 347 217 347 217 342 157 c 128,-1,16
 337 97 337 97 323.5 60 c 128,-1,17
 310 23 310 23 288 1 c 0,18,19
 262 -25 262 -25 225 -25 c 0,20,21
 166 -25 166 -25 125 40 c 128,-1,22
 84 105 84 105 67 198 c 128,-1,23
 50 291 50 291 50 400 c 0,24,25
 50 410 50 410 57 417.5 c 128,-1,26
 64 425 64 425 75 425 c 128,-1,27
 86 425 86 425 93 417.5 c 128,-1,28
 100 410 100 410 100 400 c 0,29,30
 100 244 100 244 135.5 134.5 c 128,-1,31
 171 25 171 25 225 25 c 0,32,33
 275 25 275 25 291 150 c 0,34,35
 300 219 300 219 300 400 c 0,0,1
425 675 m 128,-1,37
 414 675 414 675 407 682.5 c 128,-1,38
 400 690 400 690 400 700 c 2,39,-1
 400 900 l 2,40,41
 400 910 400 910 407 917.5 c 128,-1,42
 414 925 414 925 425 925 c 128,-1,43
 436 925 436 925 443 917.5 c 128,-1,44
 450 910 450 910 450 900 c 2,45,-1
 450 700 l 2,46,47
 450 690 450 690 443 682.5 c 128,-1,36
 436 675 436 675 425 675 c 128,-1,37
EndSplineSet
Validated: 1
EndChar

StartChar: w
Encoding: 119 119 94
Width: 400
GlyphClass: 1
Flags: W
HStem: 375 50<120 342.78> 805 20G<316.5 330.5>
VStem: 50 300<382.735 417.265>
LayerCount: 2
Fore
SplineSet
325 825 m 0,0,1
 336 825 336 825 343 817.5 c 128,-1,2
 350 810 350 810 350 800 c 0,3,4
 350 792 350 792 346 787 c 2,5,-1
 120 425 l 1,6,-1
 325 425 l 2,7,8
 336 425 336 425 343 417.5 c 128,-1,9
 350 410 350 410 350 400 c 128,-1,10
 350 390 350 390 343 382.5 c 128,-1,11
 336 375 336 375 325 375 c 2,12,-1
 120 375 l 1,13,-1
 346 13 l 2,14,15
 350 8 350 8 350 0 c 0,16,17
 350 -10 350 -10 343 -17.5 c 128,-1,18
 336 -25 336 -25 325 -25 c 0,19,20
 312 -25 312 -25 304 -13 c 2,21,-1
 54 387 l 2,22,23
 50 392 50 392 50 400 c 128,-1,24
 50 408 50 408 54 413 c 2,25,-1
 304 813 l 2,26,27
 308 825 308 825 325 825 c 0,0,1
EndSplineSet
Validated: 1
EndChar

StartChar: x
Encoding: 120 120 95
Width: 400
GlyphClass: 1
Flags: W
HStem: -25 50<157.22 218.545> 375 21G<69.5 80.5> 775 50<181.373 256.724>
VStem: 50 50<382.735 613.889> 300 50<186.111 623.053>
LayerCount: 2
Fore
SplineSet
225 775 m 0,0,1
 171 775 171 775 135.5 665.5 c 128,-1,2
 100 556 100 556 100 400 c 0,3,4
 100 390 100 390 93 382.5 c 128,-1,5
 86 375 86 375 75 375 c 128,-1,6
 64 375 64 375 57 382.5 c 128,-1,7
 50 390 50 390 50 400 c 0,8,9
 50 522 50 522 74 631 c 128,-1,10
 98 740 98 740 149 791 c 0,11,12
 183 825 183 825 225 825 c 0,13,14
 321 825 321 825 340 657 c 0,15,16
 350 584 350 584 350 407 c 2,17,-1
 350 400 l 2,18,19
 350 278 350 278 326 169 c 128,-1,20
 302 60 302 60 251 9 c 0,21,22
 217 -25 217 -25 175 -25 c 0,23,24
 164 -25 164 -25 157 -17.5 c 128,-1,25
 150 -10 150 -10 150 0 c 128,-1,26
 150 10 150 10 157 17.5 c 128,-1,27
 164 25 164 25 175 25 c 0,28,29
 229 25 229 25 264.5 134.5 c 128,-1,30
 300 244 300 244 300 400 c 0,31,32
 300 501 300 501 298.5 555 c 128,-1,33
 297 609 297 609 286 675 c 128,-1,34
 275 741 275 741 253 763 c 0,35,36
 241 775 241 775 225 775 c 0,0,1
EndSplineSet
Validated: 1
EndChar

StartChar: z
Encoding: 122 122 96
Width: 500
GlyphClass: 1
Flags: W
HStem: -25 50<181.653 242.78> 375 21G<319.5 330.5> 775 50<139.877 218.528> 905 20G<419.5 430.5> 905 20G<419.5 430.5>
VStem: 50 50<184.631 614.453> 300 50<382.735 615.369> 400 50<682.735 917.265>
LayerCount: 2
Fore
SplineSet
175 825 m 0,0,1
 234 825 234 825 275 760 c 128,-1,2
 316 695 316 695 333 602 c 128,-1,3
 350 509 350 509 350 400 c 0,4,5
 350 390 350 390 343 382.5 c 128,-1,6
 336 375 336 375 325 375 c 128,-1,7
 314 375 314 375 307 382.5 c 128,-1,8
 300 390 300 390 300 400 c 0,9,10
 300 556 300 556 264.5 665.5 c 128,-1,11
 229 775 229 775 175 775 c 0,12,13
 125 775 125 775 109 650 c 0,14,15
 100 581 100 581 100 400 c 0,16,17
 100 244 100 244 135.5 134.5 c 128,-1,18
 171 25 171 25 225 25 c 0,19,20
 236 25 236 25 243 17.5 c 128,-1,21
 250 10 250 10 250 0 c 128,-1,22
 250 -10 250 -10 243 -17.5 c 128,-1,23
 236 -25 236 -25 225 -25 c 0,24,25
 166 -25 166 -25 125 40 c 128,-1,26
 84 105 84 105 67 198 c 128,-1,27
 50 291 50 291 50 400 c 2,28,-1
 50 407 l 2,29,30
 50 492 50 492 51.5 537.5 c 128,-1,31
 53 583 53 583 58 643 c 128,-1,32
 63 703 63 703 76.5 740 c 128,-1,33
 90 777 90 777 112 799 c 0,34,35
 138 825 138 825 175 825 c 0,0,1
425 675 m 128,-1,37
 414 675 414 675 407 682.5 c 128,-1,38
 400 690 400 690 400 700 c 2,39,-1
 400 900 l 2,40,41
 400 910 400 910 407 917.5 c 128,-1,42
 414 925 414 925 425 925 c 128,-1,43
 436 925 436 925 443 917.5 c 128,-1,44
 450 910 450 910 450 900 c 2,45,-1
 450 700 l 2,46,47
 450 690 450 690 443 682.5 c 128,-1,36
 436 675 436 675 425 675 c 128,-1,37
EndSplineSet
Validated: 1
EndChar

StartChar: bar
Encoding: 124 124 97
Width: 150
GlyphClass: 1
Flags: W
HStem: 805 20G<69.5 80.5>
VStem: 50 50<-17.265 817.265>
LayerCount: 2
Fore
SplineSet
75 -25 m 128,-1,1
 64 -25 64 -25 57 -17.5 c 128,-1,2
 50 -10 50 -10 50 0 c 2,3,-1
 50 800 l 2,4,5
 50 810 50 810 57 817.5 c 128,-1,6
 64 825 64 825 75 825 c 128,-1,7
 86 825 86 825 93 817.5 c 128,-1,8
 100 810 100 810 100 800 c 2,9,-1
 100 0 l 2,10,11
 100 -10 100 -10 93 -17.5 c 128,-1,0
 86 -25 86 -25 75 -25 c 128,-1,1
EndSplineSet
Validated: 1
EndChar

StartChar: Agrave
Encoding: 192 192 98
Width: 600
GlyphClass: 1
Flags: W
HStem: 375 50<95 505> 805 20G<291.5 306.5>
LayerCount: 2
Fore
SplineSet
505 425 m 1,0,-1
 300 753 l 1,1,-1
 95 425 l 1,2,-1
 505 425 l 1,0,-1
50 375 m 2,3,4
 40 375 40 375 32.5 382.5 c 128,-1,5
 25 390 25 390 25 400 c 0,6,7
 25 408 25 408 29 413 c 2,8,-1
 279 813 l 2,9,10
 283 825 283 825 300 825 c 0,11,12
 313 825 313 825 321 813 c 2,13,-1
 571 413 l 2,14,15
 575 408 575 408 575 400 c 0,16,17
 575 390 575 390 567.5 382.5 c 128,-1,18
 560 375 560 375 550 375 c 2,19,-1
 50 375 l 2,3,4
EndSplineSet
Validated: 1
EndChar

StartChar: Aacute
Encoding: 193 193 99
Width: 600
GlyphClass: 1
Flags: W
HStem: 375 50<95 505> 805 20G<291.5 305>
LayerCount: 2
Fore
SplineSet
274 727 m 1024,0,-1
50 375 m 2,1,2
 40 375 40 375 32.5 382.5 c 128,-1,3
 25 390 25 390 25 400 c 0,4,5
 25 408 25 408 29 413 c 2,6,-1
 279 813 l 2,7,8
 283 825 283 825 300 825 c 0,9,10
 310 825 310 825 317.5 817.5 c 128,-1,11
 325 810 325 810 325 800 c 0,12,13
 325 792 325 792 321 787 c 2,14,-1
 95 425 l 1,15,-1
 550 425 l 2,16,17
 560 425 560 425 567.5 417.5 c 128,-1,18
 575 410 575 410 575 400 c 0,19,20
 575 392 575 392 571 387 c 2,21,-1
 321 -13 l 2,22,23
 317 -25 317 -25 300 -25 c 0,24,25
 290 -25 290 -25 282.5 -17.5 c 128,-1,26
 275 -10 275 -10 275 0 c 0,27,28
 275 8 275 8 279 13 c 2,29,-1
 505 375 l 1,30,-1
 50 375 l 2,1,2
EndSplineSet
Validated: 1
EndChar

StartChar: Ograve
Encoding: 210 210 100
Width: 600
GlyphClass: 1
Flags: W
HStem: 375 50<25.1831 505> 805 20G<295 306.5>
LayerCount: 2
Fore
SplineSet
258 720 m 1024,0,-1
275 800 m 0,1,2
 275 810 275 810 282.5 817.5 c 128,-1,3
 290 825 290 825 300 825 c 0,4,5
 313 825 313 825 321 813 c 2,6,-1
 571 413 l 2,7,8
 575 408 575 408 575 400 c 128,-1,9
 575 392 575 392 571 387 c 2,10,-1
 321 -13 l 2,11,12
 317 -25 317 -25 300 -25 c 0,13,14
 290 -25 290 -25 282.5 -17.5 c 128,-1,15
 275 -10 275 -10 275 0 c 0,16,17
 275 8 275 8 279 13 c 2,18,-1
 505 375 l 1,19,-1
 50 375 l 2,20,21
 40 375 40 375 32.5 382.5 c 128,-1,22
 25 390 25 390 25 400 c 128,-1,23
 25 410 25 410 32.5 417.5 c 128,-1,24
 40 425 40 425 50 425 c 2,25,-1
 505 425 l 1,26,-1
 279 787 l 2,27,28
 275 792 275 792 275 800 c 0,1,2
EndSplineSet
Validated: 1
EndChar

StartChar: Ugrave
Encoding: 217 217 101
Width: 600
GlyphClass: 1
Flags: W
HStem: 375 50<95 505> 805 20G<295 306.5>
LayerCount: 2
Fore
SplineSet
25 400 m 0,0,1
 25 410 25 410 32.5 417.5 c 128,-1,2
 40 425 40 425 50 425 c 2,3,-1
 505 425 l 1,4,-1
 279 787 l 2,5,6
 275 792 275 792 275 800 c 0,7,8
 275 810 275 810 282.5 817.5 c 128,-1,9
 290 825 290 825 300 825 c 0,10,11
 313 825 313 825 321 813 c 2,12,-1
 571 413 l 2,13,14
 575 408 575 408 575 400 c 0,15,16
 575 390 575 390 567.5 382.5 c 128,-1,17
 560 375 560 375 550 375 c 2,18,-1
 95 375 l 1,19,-1
 321 13 l 2,20,21
 325 8 325 8 325 0 c 0,22,23
 325 -10 325 -10 317.5 -17.5 c 128,-1,24
 310 -25 310 -25 300 -25 c 0,25,26
 287 -25 287 -25 279 -13 c 2,27,-1
 29 387 l 2,28,29
 25 392 25 392 25 400 c 0,0,1
EndSplineSet
Validated: 1
EndChar

StartChar: Uacute
Encoding: 218 218 102
Width: 600
GlyphClass: 1
Flags: W
HStem: 375 50<95 505>
LayerCount: 2
Fore
SplineSet
505 375 m 1,0,-1
 95 375 l 1,1,-1
 300 47 l 1,2,-1
 505 375 l 1,0,-1
25 400 m 0,3,4
 25 410 25 410 32.5 417.5 c 128,-1,5
 40 425 40 425 50 425 c 2,6,-1
 550 425 l 2,7,8
 560 425 560 425 567.5 417.5 c 128,-1,9
 575 410 575 410 575 400 c 0,10,11
 575 392 575 392 571 387 c 2,12,-1
 321 -13 l 2,13,14
 317 -25 317 -25 300 -25 c 0,15,16
 287 -25 287 -25 279 -13 c 2,17,-1
 29 387 l 2,18,19
 25 392 25 392 25 400 c 0,3,4
EndSplineSet
Validated: 1
EndChar

StartChar: agrave
Encoding: 224 224 103
Width: 400
GlyphClass: 1
Flags: W
HStem: 375 50<109 291> 805 20G<196 209.5>
VStem: 50 300<382.735 419.5>
LayerCount: 2
Fore
SplineSet
291 425 m 1,0,-1
 200 716 l 1,1,-1
 109 425 l 1,2,-1
 291 425 l 1,0,-1
75 375 m 2,3,4
 64 375 64 375 57 382.5 c 128,-1,5
 50 390 50 390 50 400 c 0,6,7
 50 405 50 405 51 407 c 2,8,-1
 176 807 l 2,9,10
 176 808 176 808 178 812 c 128,-1,11
 180 816 180 816 186 820.5 c 128,-1,12
 192 825 192 825 200 825 c 0,13,14
 219 825 219 825 224 807 c 2,15,-1
 349 407 l 2,16,17
 350 405 350 405 350 400 c 0,18,19
 350 390 350 390 343 382.5 c 128,-1,20
 336 375 336 375 325 375 c 2,21,-1
 75 375 l 2,3,4
EndSplineSet
Validated: 1
EndChar

StartChar: aacute
Encoding: 225 225 104
Width: 400
GlyphClass: 1
Flags: W
HStem: 805 20G<190.5 205>
VStem: 176 49<-24.8418 14.7742 781.8 824.785>
LayerCount: 2
Fore
SplineSet
75 325 m 0,0,1
 64 325 64 325 57 332.5 c 128,-1,2
 50 340 50 340 50 350 c 0,3,4
 50 355 50 355 51 357 c 2,5,-1
 176 807 l 2,6,7
 181 825 181 825 200 825 c 0,8,9
 210 825 210 825 217.5 817.5 c 128,-1,10
 225 810 225 810 225 800 c 0,11,12
 225 795 225 795 224 793 c 2,13,-1
 113 392 l 1,14,-1
 316 473 l 2,15,16
 322 475 322 475 325 475 c 0,17,18
 336 475 336 475 343 467.5 c 128,-1,19
 350 460 350 460 350 450 c 0,20,21
 350 445 350 445 349 443 c 2,22,-1
 224 -7 l 2,23,24
 219 -25 219 -25 200 -25 c 0,25,26
 190 -25 190 -25 182.5 -17.5 c 128,-1,27
 175 -10 175 -10 175 0 c 0,28,29
 175 5 175 5 176 7 c 2,30,-1
 287 408 l 1,31,-1
 84 327 l 2,32,33
 78 325 78 325 75 325 c 0,0,1
EndSplineSet
Validated: 1
EndChar

StartChar: ograve
Encoding: 242 242 105
Width: 400
GlyphClass: 1
Flags: W
HStem: 375 50<57.2197 280> 805 20G<69.5 81.5>
VStem: 50 300<382.735 417.265>
LayerCount: 2
Fore
SplineSet
50 800 m 0,0,1
 50 810 50 810 57 817.5 c 128,-1,2
 64 825 64 825 75 825 c 0,3,4
 88 825 88 825 96 813 c 0,5,6
 348 411 348 411 348 409 c 0,7,8
 350 403 350 403 350 400 c 0,9,10
 350 392 350 392 346 387 c 2,11,-1
 96 -13 l 2,12,13
 92 -25 92 -25 75 -25 c 0,14,15
 64 -25 64 -25 57 -17.5 c 128,-1,16
 50 -10 50 -10 50 0 c 0,17,18
 50 8 50 8 54 13 c 2,19,-1
 280 375 l 1,20,-1
 75 375 l 2,21,22
 64 375 64 375 57 382.5 c 128,-1,23
 50 390 50 390 50 400 c 128,-1,24
 50 410 50 410 57 417.5 c 128,-1,25
 64 425 64 425 75 425 c 2,26,-1
 280 425 l 1,27,-1
 54 787 l 2,28,29
 50 792 50 792 50 800 c 0,0,1
EndSplineSet
Validated: 1
EndChar

StartChar: ugrave
Encoding: 249 249 106
Width: 400
GlyphClass: 1
Flags: W
HStem: 805 20G<195 204>
VStem: 50 300
LayerCount: 2
Fore
SplineSet
325 325 m 0,0,1
 322 325 322 325 316 327 c 2,2,-1
 113 408 l 1,3,-1
 224 7 l 2,4,5
 225 5 225 5 225 0 c 0,6,7
 225 -10 225 -10 217.5 -17.5 c 128,-1,8
 210 -25 210 -25 200 -25 c 0,9,10
 192 -25 192 -25 186 -20.5 c 128,-1,11
 180 -16 180 -16 178 -12 c 2,12,-1
 176 -7 l 1,13,-1
 51 443 l 2,14,15
 50 445 50 445 50 450 c 0,16,17
 50 460 50 460 57 467.5 c 128,-1,18
 64 475 64 475 75 475 c 0,19,20
 78 475 78 475 84 473 c 2,21,-1
 287 392 l 1,22,-1
 176 793 l 2,23,24
 175 795 175 795 175 800 c 0,25,26
 175 810 175 810 182.5 817.5 c 128,-1,27
 190 825 190 825 200 825 c 0,28,29
 208 825 208 825 214 820.5 c 128,-1,30
 220 816 220 816 222 812 c 2,31,-1
 224 807 l 1,32,-1
 349 357 l 2,33,34
 350 355 350 355 350 350 c 0,35,36
 350 340 350 340 343 332.5 c 128,-1,37
 336 325 336 325 325 325 c 0,0,1
EndSplineSet
Validated: 1
EndChar

StartChar: uacute
Encoding: 250 250 107
Width: 400
GlyphClass: 1
Flags: W
HStem: 375 50<109 291>
VStem: 50 300<380.5 417.265>
LayerCount: 2
Fore
SplineSet
291 375 m 1,0,-1
 109 375 l 1,1,-1
 200 84 l 1,2,-1
 291 375 l 1,0,-1
75 425 m 2,3,-1
 325 425 l 2,4,5
 336 425 336 425 343 417.5 c 128,-1,6
 350 410 350 410 350 400 c 0,7,8
 350 395 350 395 349 393 c 2,9,-1
 224 -7 l 2,10,11
 219 -25 219 -25 200 -25 c 0,12,13
 192 -25 192 -25 186 -20.5 c 128,-1,14
 180 -16 180 -16 178 -12 c 128,-1,15
 176 -8 176 -8 176 -7 c 2,16,-1
 51 393 l 2,17,18
 50 395 50 395 50 400 c 0,19,20
 50 410 50 410 57 417.5 c 128,-1,21
 64 425 64 425 75 425 c 2,3,-1
EndSplineSet
Validated: 1
EndChar

StartChar: quotedblleft
Encoding: 8220 8220 108
Width: 600
Flags: W
HStem: 375 50<325 567.811> 805 20G<293 306>
VStem: 275 50<-17.7495 375 425 713>
LayerCount: 2
Fore
SplineSet
550 425 m 2,0,1
 562 425 562 425 568 418 c 0,2,3
 575 410 575 410 575 400 c 128,-1,4
 575 390 575 390 568 383 c 0,5,6
 560 375 560 375 550 375 c 2,7,-1
 325 375 l 1,8,-1
 325 -0 l 2,9,10
 325 -9 325 -9 318 -17 c 128,-1,11
 311 -25 311 -25 301 -25 c 0,12,13
 290 -25 290 -25 283 -18 c 0,14,15
 275 -10 275 -10 275 0 c 2,16,-1
 275 713 l 1,17,-1
 72 387 l 2,18,19
 64 375 64 375 50 375 c 0,20,21
 40 375 40 375 32 383 c 0,22,23
 25 390 25 390 25 398 c 128,-1,24
 25 406 25 406 29 413 c 2,25,-1
 279 813 l 2,26,27
 286 825 286 825 300 825 c 0,28,29
 312 825 312 825 318 818 c 0,30,31
 325 810 325 810 325 800 c 2,32,-1
 325 425 l 1,33,-1
 550 425 l 2,0,1
EndSplineSet
Validated: 1
EndChar

StartChar: quotedblright
Encoding: 8221 8221 109
Width: 600
Flags: W
HStem: 375 50<32.2197 275> 805 20G<294.5 307>
VStem: 275 50<-17.7495 375 425 713>
LayerCount: 2
Fore
SplineSet
50 425 m 2,0,1
 50 425 50 425 275 425 c 1,2,-1
 275 800 l 2,3,4
 275 809 275 809 282 817 c 128,-1,5
 289 825 289 825 300 825 c 0,6,7
 314 825 314 825 321 813 c 2,8,9
 321 813 321 813 571 413 c 2,10,11
 575 406 575 406 575 398 c 0,12,13
 575 392 575 392 567 383 c 0,14,15
 560 375 560 375 550 375 c 0,16,17
 536 375 536 375 528 387 c 2,18,19
 528 387 528 387 325 713 c 1,20,-1
 325 0 l 2,21,22
 325 -8 325 -8 317 -17 c 0,23,24
 310 -25 310 -25 300 -25 c 0,25,26
 288 -25 288 -25 282 -18 c 0,27,28
 275 -10 275 -10 275 0 c 2,29,30
 275 0 275 0 275 375 c 1,31,-1
 50 375 l 2,32,33
 38 375 38 375 32 382 c 0,34,35
 25 390 25 390 25 400 c 128,-1,36
 25 410 25 410 32 417.5 c 128,-1,37
 39 425 39 425 50 425 c 2,0,1
EndSplineSet
Validated: 1
EndChar

StartChar: quotedblbase
Encoding: 8222 8222 110
Width: 600
Flags: W
HStem: 375 50<325 567.78> 805 20G<295 306>
VStem: 275 50<87 375 425 817.75>
LayerCount: 2
Fore
SplineSet
550 375 m 2,0,1
 550 375 550 375 325 375 c 1,2,-1
 325 0 l 2,3,4
 325 -9 325 -9 318 -17 c 128,-1,5
 311 -25 311 -25 300 -25 c 0,6,7
 286 -25 286 -25 279 -13 c 2,8,9
 279 -13 279 -13 29 387 c 2,10,11
 25 394 25 394 25 402 c 0,12,13
 25 408 25 408 33 417 c 0,14,15
 40 425 40 425 50 425 c 0,16,17
 64 425 64 425 72 413 c 2,18,19
 72 413 72 413 275 87 c 1,20,-1
 275 800 l 2,21,22
 275 808 275 808 283 817 c 0,23,24
 290 825 290 825 300 825 c 0,25,26
 312 825 312 825 318 818 c 0,27,28
 325 810 325 810 325 800 c 2,29,30
 325 800 325 800 325 425 c 1,31,-1
 550 425 l 2,32,33
 562 425 562 425 568 418 c 0,34,35
 575 410 575 410 575 400 c 128,-1,36
 575 390 575 390 568 382.5 c 128,-1,37
 561 375 561 375 550 375 c 2,0,1
EndSplineSet
Validated: 1
EndChar

StartChar: uni201F
Encoding: 8223 8223 111
Width: 600
Flags: W
HStem: 375 50<32.189 275> 805 20G<294 304.5>
VStem: 275 50<87 375 425 817.75>
LayerCount: 2
Fore
SplineSet
50 375 m 2,0,1
 38 375 38 375 32 382 c 0,2,3
 25 390 25 390 25 400 c 128,-1,4
 25 410 25 410 32 417 c 0,5,6
 40 425 40 425 50 425 c 2,7,-1
 275 425 l 1,8,-1
 275 800 l 2,9,10
 275 809 275 809 282 817 c 128,-1,11
 289 825 289 825 299 825 c 0,12,13
 310 825 310 825 317 818 c 0,14,15
 325 810 325 810 325 800 c 2,16,-1
 325 87 l 1,17,-1
 528 413 l 2,18,19
 536 425 536 425 550 425 c 0,20,21
 560 425 560 425 568 417 c 0,22,23
 575 410 575 410 575 402 c 128,-1,24
 575 394 575 394 571 387 c 2,25,-1
 321 -13 l 2,26,27
 314 -25 314 -25 300 -25 c 0,28,29
 288 -25 288 -25 282 -18 c 0,30,31
 275 -10 275 -10 275 0 c 2,32,-1
 275 375 l 1,33,-1
 50 375 l 2,0,1
EndSplineSet
Validated: 1
EndChar

StartChar: parenleft
Encoding: 40 40 112
Width: 350
Flags: WO
HStem: 804.996 20G<282.935 292.889>
VStem: 37.498 50.0176<281.465 518.333>
LayerCount: 2
Fore
SplineSet
305 818 m 0,0,1
 314 809 314 809 313 800 c 0,2,3
 312 788 312 788 304 781 c 0,4,5
 88 598 88 598 88 400 c 0,6,7
 88 399 88 399 88 398 c 128,-1,8
 88 397 88 397 88 396 c 128,-1,9
 88 395 88 395 88 394 c 128,-1,10
 88 393 88 393 88 392 c 128,-1,11
 88 391 88 391 88 390 c 128,-1,12
 87.995412844 389.183486239 87.995412844 389.183486239 87.995412844 388.366656847 c 0,13,14
 87.995412844 211.114678899 87.995412844 211.114678899 304 19 c 0,15,16
 313 11 313 11 313 0 c 0,17,18
 313 -10 313 -10 305 -18 c 0,19,20
 298 -25 298 -25 288 -25 c 128,-1,21
 278 -25 278 -25 271 -19 c 0,22,23
 37 189 37 189 37 398 c 0,24,25
 37 399 37 399 37 400 c 0,26,27
 37 611 37 611 271 819 c 0,28,29
 278 825 278 825 288 825 c 128,-1,30
 298 825 298 825 305 818 c 0,0,1
EndSplineSet
Validated: 524289
EndChar

StartChar: parenright
Encoding: 41 41 113
Width: 350
Flags: W
HStem: 804.996 20G<57.1108 67.0649>
VStem: 262.484 50.0176<281.465 518.333>
LayerCount: 2
Fore
SplineSet
45 818 m 0,0,1
 52 825 52 825 62 825 c 128,-1,2
 72 825 72 825 79 819 c 0,3,4
 313 611 313 611 313 402 c 0,5,6
 313 401 313 401 313 400 c 0,7,8
 313 182 313 182 79 -19 c 0,9,10
 72 -25 72 -25 62 -25 c 128,-1,11
 52 -25 52 -25 45 -18 c 0,12,13
 37 -10 37 -10 37 1 c 0,14,15
 37 11 37 11 46 19 c 0,16,17
 262 206 262 206 262 400 c 0,18,19
 262 401 262 401 262 402 c 128,-1,20
 262 403 262 403 262 404 c 128,-1,21
 262.004587156 404.857798165 262.004587156 404.857798165 262.004587156 405.715659456 c 0,22,23
 262.004587156 591.871559633 262.004587156 591.871559633 46 781 c 0,24,25
 38 788 38 788 37 800 c 0,26,27
 37 810 37 810 45 818 c 0,0,1
EndSplineSet
Validated: 524289
EndChar

StartChar: asciicircum
Encoding: 94 94 114
Width: 350
Flags: W
HStem: 375.005 49.9902<74.9951 317.448> 804.995 20G<44.8198 55.1802>
VStem: 25.0049 49.9902<424.995 817.448>
LayerCount: 2
Fore
SplineSet
25 800 m 2,0,1
 25 810 25 810 32 817 c 0,2,3
 40 825 40 825 50 825 c 128,-1,4
 60 825 60 825 67 818 c 0,5,6
 75 810 75 810 75 800 c 2,7,-1
 75 425 l 1,8,-1
 300 425 l 2,9,10
 310 425 310 425 317 418 c 0,11,12
 325 410 325 410 325 400 c 128,-1,13
 325 390 325 390 318 383 c 0,14,15
 310 375 310 375 300 375 c 2,16,-1
 50 375 l 2,17,18
 40 375 40 375 33 382 c 0,19,20
 25 390 25 390 25 400 c 2,21,-1
 25 800 l 2,0,1
EndSplineSet
Validated: 1
EndChar

StartChar: less
Encoding: 60 60 115
Width: 350
Flags: W
HStem: 804.995 20G<293.068 305.18>
VStem: 275.005 49.9902<87.1704 712.83>
LayerCount: 2
Fore
SplineSet
275 713 m 1,0,-1
 79 400 l 1,1,-1
 275 87 l 1,2,-1
 275 713 l 1,0,-1
300 825 m 0,3,4
 310 825 310 825 317 818 c 0,5,6
 325 810 325 810 325 800 c 2,7,-1
 325 -0 l 2,8,9
 325 -10 325 -10 318 -17 c 0,10,11
 310 -25 310 -25 300 -25 c 0,12,13
 286 -25 286 -25 279 -13 c 2,14,-1
 29 387 l 2,15,16
 25 393 25 393 25 400 c 128,-1,17
 25 407 25 407 29 413 c 2,18,-1
 279 813 l 2,19,20
 286 825 286 825 300 825 c 0,3,4
EndSplineSet
Validated: 1
EndChar

StartChar: greater
Encoding: 62 62 116
Width: 350
Flags: W
HStem: 804.995 20G<44.4663 56.5786>
VStem: 24.6514 49.9902<87.1709 712.829>
LayerCount: 2
Fore
SplineSet
75 713 m 1,0,-1
 75 87 l 1,1,-1
 270 400 l 1,2,-1
 75 713 l 1,0,-1
50 825 m 0,3,4
 64 825 64 825 71 813 c 2,5,6
 71 813 71 813 321 413 c 2,7,8
 325 407 325 407 325 400 c 128,-1,9
 325 393 325 393 321 387 c 2,10,11
 321 387 321 387 71 -13 c 2,12,13
 64 -25 64 -25 50 -25 c 0,14,15
 38 -25 38 -25 32 -18 c 0,16,17
 25 -10 25 -10 25 -0 c 2,18,19
 25 -0 25 -0 25 800 c 2,20,21
 25 810 25 810 32 818 c 0,22,23
 39 825 39 825 50 825 c 0,3,4
EndSplineSet
Validated: 1
EndChar

StartChar: bracketleft
Encoding: 91 91 117
Width: 350
Flags: W
HStem: 375 21G<45 55> 805 20G<295.5 304.5>
VStem: 25 50<375.207 510.633> 125 50<258.811 541.164>
LayerCount: 2
Fore
SplineSet
75 400 m 0,0,1
 75 390 75 390 68 383 c 0,2,3
 60 375 60 375 50 375 c 128,-1,4
 40 375 40 375 33 382 c 0,5,6
 25 390 25 390 25 400 c 0,7,8
 25 575 25 575 192 738 c 0,9,10
 254 799 254 799 284 820 c 0,11,12
 291 825 291 825 300 825 c 128,-1,13
 309 825 309 825 317 818 c 128,-1,14
 325 811 325 811 325 801 c 0,15,16
 325 792 325 792 320 785 c 0,17,18
 175 582 175 582 175 400 c 128,-1,19
 175 218 175 218 320 15 c 0,20,21
 325 8 325 8 325 0 c 0,22,23
 325 -10 325 -10 318 -17 c 0,24,25
 310 -25 310 -25 300 -25 c 0,26,27
 287 -25 287 -25 280 -15 c 0,28,29
 125 206 125 206 125 400 c 0,30,31
 125 527 125 527 183 654 c 1,32,33
 75 526 75 526 75 400 c 0,0,1
EndSplineSet
Validated: 1
EndChar

StartChar: bracketright
Encoding: 93 93 118
Width: 350
Flags: W
HStem: 375 21G<295 305> 805 20G<44.5 55>
VStem: 175 50<258.811 541.164> 275 50<375.222 510.024>
LayerCount: 2
Fore
SplineSet
275 400 m 0,0,1
 275 526 275 526 167 654 c 1,2,3
 225 527 225 527 225 400 c 0,4,5
 225 206 225 206 70 -15 c 0,6,7
 63 -25 63 -25 50 -25 c 0,8,9
 40 -25 40 -25 33 -18 c 0,10,11
 25 -10 25 -10 25 0 c 0,12,13
 25 8 25 8 30 15 c 0,14,15
 175 218 175 218 175 400 c 128,-1,16
 175 582 175 582 30 785 c 0,17,18
 25 792 25 792 25 801 c 0,19,20
 25 809 25 809 33 818 c 0,21,22
 39 825 39 825 50 825 c 0,23,24
 60 825 60 825 66 820 c 0,25,26
 129 768 129 768 158 738 c 0,27,28
 325 567 325 567 325 400 c 0,29,30
 325 390 325 390 318 383 c 0,31,32
 310 375 310 375 300 375 c 128,-1,33
 290 375 290 375 282.5 382.5 c 128,-1,34
 275 390 275 390 275 400 c 0,0,1
EndSplineSet
Validated: 1
EndChar

StartChar: backslash
Encoding: 92 92 119
Width: 350
Flags: W
HStem: 375.005 49.9902<32.5517 275.005> 804.995 20G<294.82 305.18>
VStem: 275.005 49.9902<424.995 817.448>
LayerCount: 2
Fore
SplineSet
325 800 m 2,0,1
 325 800 325 800 325 400 c 2,2,3
 325 390 325 390 318 383 c 0,4,5
 310 375 310 375 300 375 c 2,6,7
 300 375 300 375 50 375 c 2,8,9
 40 375 40 375 33 382 c 0,10,11
 25 390 25 390 25 400 c 128,-1,12
 25 410 25 410 32 417 c 0,13,14
 40 425 40 425 50 425 c 2,15,16
 50 425 50 425 275 425 c 1,17,-1
 275 800 l 2,18,19
 275 810 275 810 282 817 c 0,20,21
 290 825 290 825 300 825 c 128,-1,22
 310 825 310 825 317.5 817.5 c 128,-1,23
 325 810 325 810 325 800 c 2,0,1
EndSplineSet
Validated: 1
EndChar

StartChar: underscore
Encoding: 95 95 120
Width: 350
Flags: W
HStem: 375.005 49.9902<32.5517 275.005>
VStem: 275.005 49.9902<-17.4483 375.005>
LayerCount: 2
Fore
SplineSet
325 0 m 2,0,1
 325 -10 325 -10 318 -17 c 0,2,3
 310 -25 310 -25 300 -25 c 128,-1,4
 290 -25 290 -25 283 -18 c 0,5,6
 275 -10 275 -10 275 0 c 2,7,8
 275 0 275 0 275 375 c 1,9,-1
 50 375 l 2,10,11
 40 375 40 375 33 382 c 0,12,13
 25 390 25 390 25 400 c 128,-1,14
 25 410 25 410 32 417 c 0,15,16
 40 425 40 425 50 425 c 2,17,18
 300 425 300 425 300 425 c 2,19,20
 310 425 310 425 317 418 c 0,21,22
 325 410 325 410 325 400 c 2,23,24
 325 0 325 0 325 0 c 2,0,1
EndSplineSet
Validated: 1
EndChar

StartChar: quotesingle
Encoding: 39 39 121
Width: 100
Flags: W
HStem: 375.005 21G<44.8199 55.1801> 804.995 20G<44.8199 55.1801>
VStem: 25.0049 49.9902<382.552 817.448>
LayerCount: 2
Fore
SplineSet
50 825 m 128,-1,1
 60 825 60 825 67 818 c 0,2,3
 75 810 75 810 75 800 c 2,4,-1
 75 400 l 2,5,6
 75 390 75 390 68 383 c 0,7,8
 60 375 60 375 50 375 c 128,-1,9
 40 375 40 375 33 382 c 0,10,11
 25 390 25 390 25 400 c 2,12,-1
 25 800 l 2,13,14
 25 810 25 810 32.5 817.5 c 128,-1,0
 40 825 40 825 50 825 c 128,-1,1
EndSplineSet
Validated: 1
EndChar

StartChar: numbersign
Encoding: 35 35 122
Width: 600
Flags: W
HStem: 375.005 49.9902<74.9951 275.005 324.995 567.448> 804.995 20G<44.8199 55.1801>
VStem: 25.0049 49.9902<424.995 817.448> 275.005 49.9902<-17.4483 375.005>
LayerCount: 2
Fore
SplineSet
50 825 m 128,-1,1
 60 825 60 825 67 818 c 0,2,3
 75 810 75 810 75 800 c 2,4,-1
 75 425 l 1,5,-1
 550 425 l 2,6,7
 560 425 560 425 567 418 c 0,8,9
 575 410 575 410 575 400 c 128,-1,10
 575 390 575 390 568 383 c 0,11,12
 560 375 560 375 550 375 c 2,13,-1
 325 375 l 1,14,-1
 325 -0 l 2,15,16
 325 -10 325 -10 318 -17 c 0,17,18
 310 -25 310 -25 300 -25 c 128,-1,19
 290 -25 290 -25 283 -18 c 0,20,21
 275 -10 275 -10 275 0 c 2,22,-1
 275 375 l 1,23,-1
 50 375 l 2,24,25
 40 375 40 375 33 382 c 0,26,27
 25 390 25 390 25 400 c 2,28,-1
 25 800 l 2,29,30
 25 810 25 810 32.5 817.5 c 128,-1,0
 40 825 40 825 50 825 c 128,-1,1
EndSplineSet
Validated: 1
EndChar

StartChar: lessequal
Encoding: 8804 8804 123
Width: 600
Flags: W
HStem: 375.005 49.9902<324.995 567.448> 804.995 20G<293.068 305.18>
VStem: 275.005 49.9902<87.1704 375.005 424.995 712.83>
LayerCount: 2
Fore
SplineSet
300 825 m 0,0,1
 310 825 310 825 317 818 c 0,2,3
 325 810 325 810 325 800 c 2,4,-1
 325 425 l 1,5,-1
 550 425 l 2,6,7
 560 425 560 425 567 418 c 0,8,9
 575 410 575 410 575 400 c 128,-1,10
 575 390 575 390 568 383 c 0,11,12
 560 375 560 375 550 375 c 2,13,-1
 325 375 l 1,14,-1
 325 -0 l 2,15,16
 325 -10 325 -10 318 -17 c 0,17,18
 310 -25 310 -25 300 -25 c 0,19,20
 286 -25 286 -25 279 -13 c 2,21,-1
 29 387 l 2,22,23
 25 393 25 393 25 400 c 128,-1,24
 25 407 25 407 29 413 c 2,25,-1
 279 813 l 2,26,27
 286 825 286 825 300 825 c 0,0,1
275 400 m 1,28,-1
 275 713 l 1,29,-1
 79 400 l 1,30,-1
 275 87 l 1,31,-1
 275 400 l 1,28,-1
EndSplineSet
Validated: 1
EndChar

StartChar: greaterequal
Encoding: 8805 8805 124
Width: 600
Flags: W
HStem: 375.005 49.9902<32.1982 274.651> 804.995 20G<294.466 306.579>
VStem: 274.651 49.9902<87.1709 375.005 424.995 712.829>
LayerCount: 2
Fore
SplineSet
300 825 m 0,0,1
 314 825 314 825 321 813 c 2,2,3
 321 813 321 813 571 413 c 2,4,5
 575 407 575 407 575 400 c 128,-1,6
 575 393 575 393 571 387 c 2,7,8
 571 387 571 387 321 -13 c 2,9,10
 314 -25 314 -25 300 -25 c 0,11,12
 288 -25 288 -25 282 -18 c 0,13,14
 275 -10 275 -10 275 -0 c 2,15,16
 275 -0 275 -0 275 375 c 1,17,-1
 50 375 l 2,18,19
 38 375 38 375 32 382 c 0,20,21
 25 390 25 390 25 400 c 0,22,23
 25 409 25 409 32 417 c 128,-1,24
 39 425 39 425 50 425 c 2,25,26
 50 425 50 425 275 425 c 1,27,-1
 275 800 l 2,28,29
 275 810 275 810 282 817.5 c 128,-1,30
 289 825 289 825 300 825 c 0,0,1
325 400 m 1,31,-1
 325 87 l 1,32,-1
 520 400 l 1,33,-1
 325 713 l 1,34,-1
 325 400 l 1,31,-1
EndSplineSet
Validated: 1
EndChar

StartChar: uni2266
Encoding: 8806 8806 125
Width: 600
Flags: W
HStem: 375.005 49.9902<95.1084 275.005 324.995 567.448> 804.995 20G<293.068 305.18>
VStem: 275.005 49.9902<87.1704 375.005 424.995 712.83>
LayerCount: 2
Fore
SplineSet
300 825 m 0,0,1
 310 825 310 825 317 818 c 0,2,3
 325 810 325 810 325 800 c 2,4,-1
 325 425 l 1,5,-1
 550 425 l 2,6,7
 560 425 560 425 567 418 c 0,8,9
 575 410 575 410 575 400 c 128,-1,10
 575 390 575 390 568 383 c 0,11,12
 560 375 560 375 550 375 c 2,13,-1
 325 375 l 1,14,-1
 325 -0 l 2,15,16
 325 -10 325 -10 318 -17 c 0,17,18
 310 -25 310 -25 300 -25 c 0,19,20
 286 -25 286 -25 279 -13 c 2,21,-1
 29 386 l 2,22,23
 27 390 27 390 27 390 c 0,24,25
 26 391 26 391 25 400 c 0,26,27
 24 406 24 406 29 413 c 2,28,-1
 279 813 l 2,29,30
 286 825 286 825 300 825 c 0,0,1
95 425 m 1,31,-1
 275 425 l 1,32,-1
 275 713 l 1,33,-1
 95 425 l 1,31,-1
95 375 m 1,34,-1
 275 87 l 1,35,-1
 275 375 l 1,36,-1
 95 375 l 1,34,-1
EndSplineSet
Validated: 1
EndChar

StartChar: uni2267
Encoding: 8807 8807 126
Width: 600
Flags: W
HStem: 375.005 49.9902<32.1982 274.651 324.642 504.538> 804.995 20G<294.466 306.579>
VStem: 274.651 49.9902<87.1709 375.005 424.995 712.829>
LayerCount: 2
Fore
SplineSet
300 825 m 0,0,1
 314 825 314 825 321 813 c 2,2,3
 321 813 321 813 571 413 c 2,4,5
 575 407 575 407 575 400 c 128,-1,6
 575 393 575 393 573 390 c 128,-1,7
 571 387 571 387 570 386 c 2,8,9
 570 386 570 386 321 -13 c 2,10,11
 314 -25 314 -25 300 -25 c 0,12,13
 288 -25 288 -25 282 -18 c 0,14,15
 275 -10 275 -10 275 -0 c 2,16,17
 275 -0 275 -0 275 375 c 1,18,-1
 50 375 l 2,19,20
 38 375 38 375 32 382 c 0,21,22
 25 390 25 390 25 400 c 0,23,24
 25 409 25 409 32 417 c 128,-1,25
 39 425 39 425 50 425 c 2,26,27
 50 425 50 425 275 425 c 1,28,-1
 275 800 l 2,29,30
 275 810 275 810 282 817.5 c 128,-1,31
 289 825 289 825 300 825 c 0,0,1
505 425 m 1,32,-1
 325 713 l 1,33,-1
 325 425 l 1,34,-1
 505 425 l 1,32,-1
505 375 m 1,35,-1
 325 375 l 1,36,-1
 325 87 l 1,37,-1
 505 375 l 1,35,-1
EndSplineSet
Validated: 1
EndChar

StartChar: notequal
Encoding: 8800 8800 127
Width: 600
Flags: W
HStem: 375.005 49.9902<95.1084 275.005 324.995 504.892>
VStem: 275.005 49.9902<-17.4483 375.005 424.995 712.83>
LayerCount: 2
Fore
SplineSet
278 812 m 2,0,1
 279 813 279 813 280 815 c 0,2,3
 285 825 285 825 300 825 c 0,4,5
 314 825 314 825 321 813 c 2,6,-1
 571 413 l 2,7,8
 576 406 576 406 576 398 c 0,9,10
 576 391 576 391 568 383 c 128,-1,11
 560 375 560 375 550 375 c 2,12,-1
 325 375 l 1,13,-1
 325 -0 l 2,14,15
 325 -10 325 -10 318 -17 c 0,16,17
 310 -25 310 -25 300 -25 c 128,-1,18
 290 -25 290 -25 283 -18 c 0,19,20
 275 -10 275 -10 275 0 c 2,21,-1
 275 375 l 1,22,-1
 50 375 l 2,23,24
 41 375 41 375 32 383 c 0,25,26
 24 390 24 390 24 398 c 128,-1,27
 24 406 24 406 29 413 c 2,28,-1
 278 812 l 2,0,1
275 713 m 1,29,-1
 95 425 l 1,30,-1
 275 425 l 1,31,-1
 275 713 l 1,29,-1
325 425 m 1,32,-1
 505 425 l 1,33,-1
 325 713 l 1,34,-1
 325 425 l 1,32,-1
EndSplineSet
Validated: 1
EndChar

StartChar: element
Encoding: 8712 8712 128
Width: 600
Flags: W
HStem: 375.005 21G<44.8199 56.9322> 804.995 20G<293.068 306.932>
VStem: 275.005 49.9902<87.1704 712.83>
LayerCount: 2
Fore
SplineSet
575 400 m 128,-1,1
 575 393 575 393 571 387 c 2,2,-1
 321 -13 l 2,3,4
 314 -25 314 -25 300 -25 c 0,5,6
 290 -25 290 -25 283 -18 c 0,7,8
 275 -10 275 -10 275 0 c 2,9,-1
 275 713 l 1,10,-1
 71 387 l 2,11,12
 64 375 64 375 50 375 c 0,13,14
 41 375 41 375 32 383 c 0,15,16
 24 390 24 390 24 398 c 128,-1,17
 24 406 24 406 29 413 c 2,18,-1
 279 813 l 2,19,20
 286 825 286 825 300 825 c 128,-1,21
 314 825 314 825 321 813 c 2,22,-1
 571 413 l 2,23,0
 575 407 575 407 575 400 c 128,-1,1
325 87 m 1,24,-1
 521 400 l 1,25,-1
 325 713 l 1,26,-1
 325 87 l 1,24,-1
EndSplineSet
Validated: 1
EndChar

StartChar: uni220A
Encoding: 8714 8714 129
Width: 600
Flags: W
HStem: 375.005 21G<44.8199 56.9322> 804.995 20G<293.068 306.932>
VStem: 275.005 49.9902<87.1704 712.83>
LayerCount: 2
Fore
SplineSet
575 400 m 128,-1,1
 575 393 575 393 571 387 c 2,2,-1
 321 -13 l 2,3,4
 314 -25 314 -25 300 -25 c 0,5,6
 290 -25 290 -25 283 -18 c 0,7,8
 275 -10 275 -10 275 0 c 2,9,-1
 275 713 l 1,10,-1
 71 387 l 2,11,12
 64 375 64 375 50 375 c 0,13,14
 41 375 41 375 32 383 c 0,15,16
 24 390 24 390 24 398 c 128,-1,17
 24 406 24 406 29 413 c 2,18,-1
 279 813 l 2,19,20
 286 825 286 825 300 825 c 128,-1,21
 314 825 314 825 321 813 c 2,22,-1
 571 413 l 2,23,0
 575 407 575 407 575 400 c 128,-1,1
325 87 m 1,24,-1
 521 400 l 1,25,-1
 325 713 l 1,26,-1
 325 87 l 1,24,-1
EndSplineSet
Validated: 1
EndChar

StartChar: suchthat
Encoding: 8715 8715 130
Width: 600
Flags: W
HStem: 375.005 21G<542.696 554.808> 804.995 20G<292.696 306.56>
VStem: 274.633 49.9902<87.1709 712.829>
LayerCount: 2
Fore
SplineSet
24 400 m 128,-1,1
 24 407 24 407 28 413 c 2,2,3
 28 413 28 413 278 813 c 2,4,5
 286 825 286 825 300 825 c 0,6,7
 313 825 313 825 321 813 c 2,8,9
 321 813 321 813 571 413 c 2,10,11
 575 406 575 406 575 398 c 0,12,13
 575 392 575 392 567 383 c 0,14,15
 560 375 560 375 550 375 c 0,16,17
 536 375 536 375 528 387 c 2,18,19
 528 387 528 387 325 713 c 1,20,-1
 325 0 l 2,21,22
 325 -8 325 -8 317 -17 c 0,23,24
 310 -25 310 -25 300 -25 c 0,25,26
 286 -25 286 -25 278 -13 c 2,27,28
 278 -13 278 -13 28 387 c 2,29,0
 24 393 24 393 24 400 c 128,-1,1
275 87 m 1,30,-1
 275 713 l 1,31,-1
 79 400 l 1,32,-1
 275 87 l 1,30,-1
EndSplineSet
Validated: 1
EndChar

StartChar: uni220D
Encoding: 8717 8717 131
Width: 600
Flags: W
HStem: 375.005 21G<542.696 554.808> 804.995 20G<292.696 306.56>
VStem: 274.633 49.9902<87.1709 712.829>
LayerCount: 2
Fore
SplineSet
24 400 m 128,-1,1
 24 407 24 407 28 413 c 2,2,3
 28 413 28 413 278 813 c 2,4,5
 286 825 286 825 300 825 c 0,6,7
 313 825 313 825 321 813 c 2,8,9
 321 813 321 813 571 413 c 2,10,11
 575 406 575 406 575 398 c 0,12,13
 575 392 575 392 567 383 c 0,14,15
 560 375 560 375 550 375 c 0,16,17
 536 375 536 375 528 387 c 2,18,19
 528 387 528 387 325 713 c 1,20,-1
 325 0 l 2,21,22
 325 -8 325 -8 317 -17 c 0,23,24
 310 -25 310 -25 300 -25 c 0,25,26
 286 -25 286 -25 278 -13 c 2,27,28
 278 -13 278 -13 28 387 c 2,29,0
 24 393 24 393 24 400 c 128,-1,1
275 87 m 1,30,-1
 275 713 l 1,31,-1
 79 400 l 1,32,-1
 275 87 l 1,30,-1
EndSplineSet
Validated: 1
EndChar
